<svg xmlns="http://www.w3.org/2000/svg" viewBox="0 0 30 32">
  <title>export_web_large@1x</title>
  <g id="Слой_2" data-name="Слой 2">
    <g id="Слой_1-2" data-name="Слой 1">
      <g>
        <path d="M22.92,8.44A1,1,0,0,0,22.86,7L15.68.27a1,1,0,0,0-.19-.12L15.38.08a.93.93,0,0,0-.76,0h0a1,1,0,0,0-.26.17h0L7.14,7a1,1,0,0,0-.06,1.44,1,1,0,0,0,1.41.06L14,3.35V17.18a1,1,0,1,0,2,0V3.35l5.51,5.16A1,1,0,0,0,22.92,8.44Z" style="fill: #fff"/>
        <path d="M15,20.75a1,1,0,0,0-1,1v3.07a1,1,0,1,0,2,0V21.78A1,1,0,0,0,15,20.75Z" style="fill: #fff"/>
        <path d="M26,32H4a4,4,0,0,1-4-3.93V15.48a4,4,0,0,1,4-3.93h6a1,1,0,0,1,0,2H4a2,2,0,0,0-2,1.88V28.07A2,2,0,0,0,4,30H26a2,2,0,0,0,2-1.88V15.48a2,2,0,0,0-2-1.88H20.18a1,1,0,0,1,0-2H26a4,4,0,0,1,4,3.93V28.07A4,4,0,0,1,26,32Z" style="fill: #fff"/>
      </g>
    </g>
  </g>
</svg>
