<svg xmlns="http://www.w3.org/2000/svg" viewBox="0 0 30 32">
  <title>import_web_large@1x</title>
  <g id="Слой_2" data-name="Слой 2">
    <g id="Слой_1-2" data-name="Слой 1">
      <g>
        <path d="M7.08,17.42a1,1,0,0,0,.06,1.44l7.18,6.73a1,1,0,0,0,.19.12l.11.07a.93.93,0,0,0,.76,0h0a1,1,0,0,0,.26-.17h0l7.18-6.73a1,1,0,0,0,.06-1.44,1,1,0,0,0-1.41-.06L16,22.52V8.69a1,1,0,1,0-2,0V22.52L8.49,17.36A1,1,0,0,0,7.08,17.42Z" style="fill: #fff"/>
        <path d="M15,5.11a1,1,0,0,0,1-1V1a1,1,0,1,0-2,0V4.09A1,1,0,0,0,15,5.11Z" style="fill: #fff"/>
        <path d="M26,32H4a4,4,0,0,1-4-3.93V15.48a4,4,0,0,1,4-3.93h6a1,1,0,0,1,0,2H4a2,2,0,0,0-2,1.88V28.07A2,2,0,0,0,4,30H26a2,2,0,0,0,2-1.88V15.48a2,2,0,0,0-2-1.88H20.18a1,1,0,0,1,0-2H26a4,4,0,0,1,4,3.93V28.07A4,4,0,0,1,26,32Z" style="fill: #fff"/>
      </g>
    </g>
  </g>
</svg>
