<?xml version="1.0" encoding="utf-8"?>
<!-- Generator: Adobe Illustrator 22.0.1, SVG Export Plug-In . SVG Version: 6.00 Build 0)  -->
<svg version="1.1" id="Layer_1" xmlns="http://www.w3.org/2000/svg" xmlns:xlink="http://www.w3.org/1999/xlink" x="0px" y="0px"
	 viewBox="0 0 20 26" style="enable-background:new 0 0 20 26;" xml:space="preserve">
<style type="text/css">
	.st0{fill:#FFFFFF;}
</style>
<g>
	<g>
		<path class="st0" d="M19.4,8.9l-8.3-8.3C10.6,0.3,10,0,9.4,0H3.8C1.7,0,0,1.7,0,3.8v18.4C0,24.3,1.7,26,3.8,26h12.3
			c2.2,0,3.8-1.7,3.8-3.8V10.6C20,9.9,19.8,9.3,19.4,8.9z M10.8,2.4l6.8,6.7h-4.5c-1.2,0-2.3-1.1-2.3-2.3V2.4z M18.5,22.2
			c0,1.2-1.1,2.3-2.3,2.3H3.8c-1.2,0-2.3-1.1-2.3-2.3V3.8c0-1.2,1.1-2.3,2.3-2.3h5.4v5.4c0,2.1,1.7,3.8,3.8,3.8h5.4V22.2z
			 M10.8,15.6v-2.3c0-0.5-0.3-0.8-0.8-0.8c-0.5,0-0.8,0.3-0.8,0.8v2.3H6.9c-0.5,0-0.8,0.3-0.8,0.8c0,0.5,0.3,0.8,0.8,0.8h2.3v2.3
			c0,0.5,0.3,0.8,0.8,0.8c0.5,0,0.8-0.3,0.8-0.8v-2.3h2.3c0.5,0,0.8-0.3,0.8-0.8c0-0.5-0.3-0.8-0.8-0.8H10.8z"/>
	</g>
</g>
</svg>
