<svg 
 xmlns="http://www.w3.org/2000/svg"
 xmlns:xlink="http://www.w3.org/1999/xlink"
 width="12px" height="10px">
<path fill-rule="evenodd"  fill="rgb(31, 190, 255)"
 d="M10.923,6.094 L3.679,6.094 L5.744,8.168 C5.948,8.374 6.059,8.644 6.059,8.932 C6.059,9.221 5.948,9.491 5.744,9.695 C5.535,9.906 5.261,10.012 4.985,10.012 C4.710,10.012 4.435,9.906 4.226,9.695 L0.329,5.780 C0.258,5.708 0.209,5.618 0.160,5.529 C0.073,5.372 0.013,5.202 0.013,5.016 C0.013,5.016 0.013,5.016 0.013,5.015 C0.013,5.015 0.013,5.015 0.013,5.014 C0.013,4.987 0.026,4.965 0.028,4.939 C0.036,4.821 0.052,4.705 0.096,4.599 C0.148,4.476 0.224,4.366 0.315,4.271 C0.320,4.265 0.322,4.258 0.327,4.252 L4.226,0.335 C4.644,-0.084 5.327,-0.084 5.744,0.335 C6.164,0.757 6.164,1.442 5.744,1.861 L3.681,3.935 L10.923,3.935 C11.516,3.935 11.997,4.420 11.997,5.014 C11.997,5.612 11.516,6.094 10.923,6.094 Z"/>
</svg>