<?xml version="1.0" encoding="utf-8"?>
<!-- Generator: Adobe Illustrator 17.0.0, SVG Export Plug-In . SVG Version: 6.00 Build 0)  -->
<!DOCTYPE svg PUBLIC "-//W3C//DTD SVG 1.1//EN" "http://www.w3.org/Graphics/SVG/1.1/DTD/svg11.dtd">
<svg version="1.1" id="Слой_1" xmlns="http://www.w3.org/2000/svg" xmlns:xlink="http://www.w3.org/1999/xlink" x="0px" y="0px"
	 width="100px" height="100px" viewBox="0 0 100 100" enable-background="new 0 0 100 100" xml:space="preserve">
<g>
	<path fill="#FFFFFF" d="M59.11,49.063c2.546-1.826,4.171-4.571,4.171-7.637c0-4.711-3.834-8.658-8.956-9.68v-3.165
		c0-1.093-0.886-1.979-1.979-1.979c-1.093,0-1.979,0.886-1.979,1.979v2.9h-4.475v-2.9c0-1.093-0.886-1.979-1.979-1.979
		s-1.979,0.886-1.979,1.979v2.9h-4.797c-1.093,0-1.979,0.886-1.979,1.979s0.886,1.979,1.979,1.979h3.012V64.5h-3.012
		c-1.093,0-1.979,0.886-1.979,1.979s0.886,1.979,1.979,1.979h4.797v2.9c0,1.093,0.886,1.979,1.979,1.979s1.979-0.886,1.979-1.979
		v-2.9h4.475v2.9c0,1.093,0.886,1.979,1.979,1.979c1.093,0,1.979-0.886,1.979-1.979V68.33c5.943-0.757,10.52-5.123,10.52-10.396
		C64.845,54.206,62.551,50.933,59.11,49.063z M59.322,41.426c0,3.301-3.413,5.986-7.609,5.986h-6.752h-0.857V35.439h7.609
		C55.91,35.439,59.322,38.125,59.322,41.426z M52.496,64.5h-8.391V51.37h0.857h6.752h0.782c4.626,0,8.39,2.945,8.39,6.565
		C60.886,61.555,57.122,64.5,52.496,64.5z"/>
	
		<circle fill="none" stroke="#FFFFFF" stroke-width="4" stroke-linecap="round" stroke-linejoin="round" stroke-miterlimit="10" cx="50" cy="50" r="48"/>
	
		<circle fill="none" stroke="#FFFFFF" stroke-width="4" stroke-linecap="round" stroke-linejoin="round" stroke-miterlimit="10" cx="50" cy="50" r="37.756"/>
</g>
</svg>
