<?xml version="1.0" encoding="utf-8"?>
<!-- Generator: Adobe Illustrator 22.0.1, SVG Export Plug-In . SVG Version: 6.00 Build 0)  -->
<svg version="1.1" id="Layer_1" xmlns="http://www.w3.org/2000/svg" xmlns:xlink="http://www.w3.org/1999/xlink" x="0px" y="0px"
	 viewBox="0 0 100 100" style="enable-background:new 0 0 100 100;" xml:space="preserve">
<style type="text/css">
	.st0{fill:#FFFFFF;}
</style>
<g>
	<path class="st0" d="M97.3,34.3L65.7,2.7C64,0.9,61.7,0,59.3,0c-2.4,0-4.7,0.9-6.4,2.6L2.7,52.8c-1.7,1.7-2.7,4-2.7,6.4
		c0,2.4,0.9,4.7,2.7,6.4l3.9,3.9c0,0,0,0,0,0c0,0,0,0,0,0l26.2,26.2h-3.6c-1.2,0-2.1,0.9-2.1,2.1c0,1.2,0.9,2.1,2.1,2.1h11.6
		c0,0,0,0,0,0s0,0,0,0l30.1,0c1.2,0,2.1-0.9,2.1-2.1c0-1.2-0.9-2.1-2.1-2.1l-22.2,0l48.7-48.7C100.9,43.6,100.9,37.9,97.3,34.3z
		 M94.4,44.2L44.2,94.4c-0.9,0.9-2.2,1.4-3.5,1.4h0c-1.3,0-2.5-0.5-3.5-1.4L11,68.1l48.2-48.2c0.8-0.8,0.8-2.1,0-2.9
		c-0.8-0.8-2.1-0.8-2.9,0L8,65.2l-2.4-2.4c-0.9-0.9-1.4-2.2-1.4-3.5c0-1.3,0.5-2.6,1.4-3.5L55.8,5.6c0.9-0.9,2.2-1.4,3.5-1.4
		c1.3,0,2.6,0.5,3.5,1.4L74,16.9L25.8,65.1c-0.8,0.8-0.8,2.1,0,2.9c0.4,0.4,0.9,0.6,1.5,0.6c0.5,0,1.1-0.2,1.5-0.6l48.2-48.2
		l17.4,17.4C96.3,39.2,96.3,42.3,94.4,44.2z"/>
	<path class="st0" d="M51.3,60.2c-0.8-0.8-2.1-0.8-2.9,0L32,76.6c-0.8,0.8-0.8,2.1,0,2.9c0.4,0.4,0.9,0.6,1.5,0.6s1.1-0.2,1.5-0.6
		l16.4-16.4C52.1,62.3,52.1,61,51.3,60.2z"/>
	<path class="st0" d="M44.6,75.7l-6.7,6.7c-0.8,0.8-0.8,2.1,0,2.9c0.4,0.4,0.9,0.6,1.5,0.6c0.5,0,1.1-0.2,1.5-0.6l6.7-6.7
		c0.8-0.8,0.8-2.1,0-2.9C46.7,74.9,45.4,74.9,44.6,75.7z"/>
	<path class="st0" d="M50.8,69.5l-0.9,0.9c-0.8,0.8-0.8,2.1,0,2.9c0.4,0.4,0.9,0.6,1.5,0.6c0.5,0,1.1-0.2,1.5-0.6l0.9-0.9
		c0.8-0.8,0.8-2.1,0-2.9C52.9,68.7,51.6,68.7,50.8,69.5z"/>
	<path class="st0" d="M79.5,32c-0.4-0.4-0.9-0.6-1.5-0.6c-0.6,0-1.1,0.2-1.5,0.6l-8.8,8.8c-0.4,0.4-0.6,0.9-0.6,1.5
		c0,0.6,0.2,1.1,0.6,1.5l5.9,5.9c0.4,0.4,0.9,0.6,1.5,0.6c0.5,0,1.1-0.2,1.5-0.6l8.8-8.8c0.8-0.8,0.8-2.1,0-2.9L79.5,32z M75.1,45.2
		l-2.9-2.9l5.9-5.9l2.9,2.9L75.1,45.2z"/>
	<path class="st0" d="M62.6,15.7c0.5,0,1.1-0.2,1.5-0.6l0.9-0.9c0.8-0.8,0.8-2.1,0-2.9c-0.8-0.8-2.1-0.8-2.9,0l-0.9,0.9
		c-0.8,0.8-0.8,2.1,0,2.9C61.5,15.5,62,15.7,62.6,15.7z"/>
	<path class="st0" d="M20.9,69.9l-0.9,0.9c-0.8,0.8-0.8,2.1,0,2.9c0.4,0.4,0.9,0.6,1.5,0.6c0.5,0,1.1-0.2,1.5-0.6l0.9-0.9
		c0.8-0.8,0.8-2.1,0-2.9C23.1,69.1,21.8,69.1,20.9,69.9z"/>
</g>
</svg>
