<?xml version="1.0" encoding="utf-8"?>
<!-- Generator: Adobe Illustrator 17.0.0, SVG Export Plug-In . SVG Version: 6.00 Build 0)  -->
<!DOCTYPE svg PUBLIC "-//W3C//DTD SVG 1.1//EN" "http://www.w3.org/Graphics/SVG/1.1/DTD/svg11.dtd">
<svg version="1.1" id="Слой_1" xmlns="http://www.w3.org/2000/svg" xmlns:xlink="http://www.w3.org/1999/xlink" x="0px" y="0px"
	 width="89.3px" height="99px" viewBox="0 0 89.3 99" enable-background="new 0 0 89.3 99" xml:space="preserve">
<g>
	<g>
		
			<rect x="47.3" y="2" fill="none" stroke="#FFFFFF" stroke-width="4" stroke-linecap="round" stroke-linejoin="round" stroke-miterlimit="10" width="32" height="14"/>
		<path fill="none" stroke="#FFFFFF" stroke-width="4" stroke-linecap="round" stroke-linejoin="round" stroke-miterlimit="10" d="
			M33.215,71.16l-7.976,18.608c-2.595,6.054-9.607,8.859-15.661,6.264l-0.346-0.148c-6.054-2.595-8.859-9.607-6.264-15.661
			l7.976-18.608c2.595-6.054,9.607-8.859,15.661-6.264l0.346,0.148C33.006,58.094,35.81,65.106,33.215,71.16z"/>
		
			<line fill="none" stroke="#FFFFFF" stroke-width="4" stroke-linecap="round" stroke-linejoin="round" stroke-miterlimit="10" x1="7.033" y1="70.714" x2="29.454" y2="79.935"/>
		<path fill="none" stroke="#FFFFFF" stroke-width="4" stroke-linecap="round" stroke-linejoin="round" stroke-miterlimit="10" d="
			M63.3,97c-6.264,0-12.445,0-16,0c-4.317,0-7.919-3.662-7.919-9.164C39.382,82.334,39.3,36.54,39.3,34s1.637-7.367,6.684-8.044
			c4.95-0.664,6.518-3.227,6.518-6.81c0-2.163-0.169-3.009-0.169-3.009"/>
		<path fill="none" stroke="#FFFFFF" stroke-width="4" stroke-linecap="round" stroke-linejoin="round" stroke-miterlimit="10" d="
			M63.3,97c6.264,0,13.445,0,17,0c4.317,0,7-3.498,7-9s0-51.46,0-54s-0.953-7.323-6-8c-4.95-0.664-6.788-3.271-6.788-6.854
			c0-2.163,0.169-3.009,0.169-3.009"/>
		
			<line fill="none" stroke="#FFFFFF" stroke-width="4" stroke-linecap="round" stroke-linejoin="round" stroke-miterlimit="10" x1="40.3" y1="43" x2="87.3" y2="43"/>
		
			<line fill="none" stroke="#FFFFFF" stroke-width="4" stroke-linecap="round" stroke-linejoin="round" stroke-miterlimit="10" x1="40.3" y1="81" x2="87.3" y2="81"/>
	</g>
	
		<line fill="none" stroke="#FFFFFF" stroke-width="4" stroke-linecap="round" stroke-linejoin="round" stroke-miterlimit="10" x1="46.3" y1="53" x2="79.3" y2="53"/>
	
		<line fill="none" stroke="#FFFFFF" stroke-width="4" stroke-linecap="round" stroke-linejoin="round" stroke-miterlimit="10" x1="46.3" y1="60" x2="79.3" y2="60"/>
	
		<line fill="none" stroke="#FFFFFF" stroke-width="4" stroke-linecap="round" stroke-linejoin="round" stroke-miterlimit="10" x1="46.3" y1="67" x2="79.3" y2="67"/>
</g>
</svg>
