<?xml version="1.0" encoding="utf-8"?>
<!-- Generator: Adobe Illustrator 22.0.1, SVG Export Plug-In . SVG Version: 6.00 Build 0)  -->
<svg version="1.1" id="Layer_1" xmlns="http://www.w3.org/2000/svg" xmlns:xlink="http://www.w3.org/1999/xlink" x="0px" y="0px"
	 viewBox="0 0 24 26" style="enable-background:new 0 0 24 26;" xml:space="preserve">
<style type="text/css">
	.st0{fill:#FFFFFF;}
</style>
<g>
	<g>
		<path class="st0" d="M22.9,17.9c-0.6,0-1.1,0.5-1.1,1.1v3.6c0,0.7-0.6,1.3-1.4,1.3h-17c-0.8,0-1.4-0.6-1.4-1.3V19
			c0-0.6-0.5-1.1-1.1-1.1C0.5,17.9,0,18.4,0,19v3.6C0,24.5,1.6,26,3.5,26h17c1.9,0,3.5-1.5,3.5-3.4V19C24,18.4,23.5,17.9,22.9,17.9z
			 M11.2,18.5C11.2,18.5,11.3,18.5,11.2,18.5c0.1,0.1,0.2,0.2,0.3,0.2c0.1,0.1,0.3,0.1,0.4,0.1s0.3,0,0.4-0.1
			c0.1-0.1,0.2-0.1,0.3-0.2c0,0,0,0,0,0l4.9-4.8c0.4-0.4,0.4-1.1,0-1.5c-0.4-0.4-1.1-0.4-1.5,0l-3,3V1.1C13.1,0.5,12.6,0,12,0
			c-0.6,0-1.1,0.5-1.1,1.1v14.2l-3-3c-0.4-0.4-1.1-0.4-1.5,0c-0.4,0.4-0.4,1.1,0,1.5L11.2,18.5z"/>
	</g>
</g>
</svg>
