<?xml version="1.0" encoding="utf-8"?>
<!-- Generator: Adobe Illustrator 17.0.0, SVG Export Plug-In . SVG Version: 6.00 Build 0)  -->
<!DOCTYPE svg PUBLIC "-//W3C//DTD SVG 1.1//EN" "http://www.w3.org/Graphics/SVG/1.1/DTD/svg11.dtd">
<svg version="1.1" id="Слой_1" xmlns="http://www.w3.org/2000/svg" xmlns:xlink="http://www.w3.org/1999/xlink" x="0px" y="0px"
	 width="76.441px" height="99.994px" viewBox="0 0 76.441 99.994" enable-background="new 0 0 76.441 99.994" xml:space="preserve">
<g>
	<path fill="none" stroke="#FFFFFF" stroke-width="4" stroke-linecap="round" stroke-linejoin="round" stroke-miterlimit="10" d="
		M72.85,97.994H9.639C5.42,97.994,2,94.574,2,90.355v0c0-4.219,3.42-7.639,7.639-7.639H72.85c4.219,0-5.772,0-5.772,7.639v0
		C67.078,98.031,77.069,97.994,72.85,97.994z"/>
	<path fill="none" stroke="#FFFFFF" stroke-width="4" stroke-linecap="round" stroke-linejoin="round" stroke-miterlimit="10" d="
		M2,90.355c0-8.912,0-76.643,0-80.717S4.928,2,9.893,2s64.548,0,64.548,0v80.717"/>
	
		<rect x="13.458" y="13.331" fill="none" stroke="#FFFFFF" stroke-width="4" stroke-linecap="round" stroke-linejoin="round" stroke-miterlimit="10" width="49.525" height="47.615"/>
	
		<line fill="none" stroke="#FFFFFF" stroke-width="4" stroke-linecap="round" stroke-linejoin="round" stroke-miterlimit="10" x1="24.916" y1="25.17" x2="51.397" y2="25.17"/>
	
		<line fill="none" stroke="#FFFFFF" stroke-width="4" stroke-linecap="round" stroke-linejoin="round" stroke-miterlimit="10" x1="24.916" y1="37.138" x2="51.397" y2="37.138"/>
	
		<line fill="none" stroke="#FFFFFF" stroke-width="4" stroke-linecap="round" stroke-linejoin="round" stroke-miterlimit="10" x1="47.323" y1="49.072" x2="29.075" y2="49.072"/>
	<circle fill="#FFFFFF" cx="38.179" cy="71.665" r="3.859"/>
</g>
</svg>
