<?xml version="1.0" encoding="utf-8"?>
<!-- Generator: Adobe Illustrator 22.0.1, SVG Export Plug-In . SVG Version: 6.00 Build 0)  -->
<svg version="1.1" id="Layer_1" xmlns="http://www.w3.org/2000/svg" xmlns:xlink="http://www.w3.org/1999/xlink" x="0px" y="0px"
	 viewBox="0 0 115 99.9" style="enable-background:new 0 0 115 99.9;" xml:space="preserve">
<style type="text/css">
	.st0{fill:#FFFFFF;}
</style>
<g>
	<path class="st0" d="M106.5,1.3L105.3,0l-1.6,0.7c-9.5,4.4-17,9.9-22.3,16.3c-4.3,5.2-7.2,11-8.5,17.3c-1.8,8.3-0.3,15.1,0.5,17.9
		c-4.2,5.8-8.3,13.2-12.5,22.4c-4.7-2-16.1-7-21.5-12.3l-2-2l-1.7,2.3C29,71.7,19.2,75.9,8.9,79.8l-2.2,0.8l0.7,2.2
		c0,0.1,1.9,6.2,1.1,12.2L0,95l0,4.9l32.3,0l0.1,0c8.6-0.4,15.3-1.3,20.5-4.8c5.1-3.4,8.1-8.8,11.5-16.3c6.5-14.6,12.6-24.5,19-30.7
		c3,5.6,5.2,15.1,6.6,27.9c1.2,11.4,1.2,21.4,1.2,21.5v2.4h12.4l0.1-2.3c1.1-25.2,5-40.2,7.9-51.1c2-7.6,3.5-13.5,3.5-20
		C115,10.2,106.9,1.6,106.5,1.3L106.5,1.3z M50.2,91c-3.7,2.5-8.7,3.6-17.9,4l-18.8,0c0.5-4.5-0.2-8.9-0.8-11.4
		c9.5-3.6,18.5-7.8,25.4-16c6.3,5.1,16.3,9.6,20.9,11.5C55.8,85.5,53.4,88.9,50.2,91L50.2,91z M77.4,47.3c-0.4-3-0.7-7.3,0.4-12.2
		c1.2-5.4,3.7-10.5,7.5-15C89.8,14.7,96.1,9.9,104.1,6c2,2.7,6,9.6,6,20.4c0,2.5-0.3,4.9-0.7,7.4c-8.4,0.1-17.3,1.2-25.7,7.5
		C81.6,42.9,79.4,44.9,77.4,47.3L77.4,47.3z M98.8,95H96c-0.2-8.6-1.3-37.2-8.8-50.1c6.4-4.7,13.2-5.9,21.2-6.1
		c-0.5,2-1,4.2-1.6,6.4C103.9,56,100.1,70.7,98.8,95L98.8,95z M98.8,95"/>
</g>
</svg>
