<?xml version="1.0" encoding="utf-8"?>
<!-- Generator: Adobe Illustrator 17.0.0, SVG Export Plug-In . SVG Version: 6.00 Build 0)  -->
<!DOCTYPE svg PUBLIC "-//W3C//DTD SVG 1.1//EN" "http://www.w3.org/Graphics/SVG/1.1/DTD/svg11.dtd">
<svg version="1.1" id="Слой_1" xmlns="http://www.w3.org/2000/svg" xmlns:xlink="http://www.w3.org/1999/xlink" x="0px" y="0px"
	 width="75.004px" height="100px" viewBox="0 0 75.004 100" enable-background="new 0 0 75.004 100" xml:space="preserve">
<g>
	<path fill="#FFFFFF" d="M56.725,90.092c-0.45,0-0.908-0.146-1.292-0.45C42.871,79.7,29.154,68,25.404,54.963
		c-1.587-5.521,1.613-11.3,7.133-12.892c5.521-1.579,11.304,1.617,12.892,7.133c2.217,7.704,17.267,19.617,22.933,24.1
		c0.904,0.712,1.054,2.025,0.342,2.925c-0.713,0.904-2.017,1.058-2.925,0.342c-10.762-8.517-22.075-18.296-24.354-26.217
		c-0.954-3.313-4.429-5.225-7.738-4.279c-3.308,0.954-5.229,4.425-4.279,7.733c3.408,11.85,16.554,23.021,28.608,32.563
		c0.904,0.712,1.054,2.025,0.342,2.925C57.95,89.821,57.342,90.092,56.725,90.092z"/>
	<path fill="#FFFFFF" d="M3.763,79.546c-0.888,0-1.713-0.571-1.988-1.462c-0.346-1.1,0.267-2.267,1.367-2.608
		c2.329-0.729,9.662-4.025,6.246-15.904C7.392,52.617,8.217,45.3,11.721,38.975c3.504-6.333,9.262-10.921,16.221-12.921
		c14.017-3.992,28.854,3.967,33.271,17.783c1.038,0.975,8.15,6.85,13.017,10.8c0.892,0.725,1.029,2.038,0.304,2.929
		c-0.721,0.896-2.037,1.033-2.929,0.304C58.208,47,57.763,46.246,57.546,45.888c-0.088-0.146-0.154-0.3-0.204-0.458
		C53.729,33.542,41.05,26.65,29.088,30.063c-5.883,1.687-10.758,5.571-13.725,10.925C12.4,46.342,11.7,52.533,13.387,58.417
		c3.55,12.338-2.633,19.042-9.008,21.033C4.179,79.512,3.971,79.546,3.763,79.546z"/>
	<path fill="#FFFFFF" d="M10.417,87.5c-0.887,0-1.708-0.571-1.988-1.463c-0.346-1.096,0.267-2.267,1.367-2.608
		c8.633-2.7,11.775-7.133,7.567-26.292c-2.279-10.392,3.254-20.308,12.871-23.075c9.929-2.842,20.346,2.913,23.2,12.838
		c0.579,2.013,3.225,5.892,18.688,18.133c0.904,0.713,1.054,2.025,0.342,2.929c-0.712,0.9-2.017,1.063-2.925,0.342
		C52.467,54.796,50.242,50.892,49.429,48.058c-2.221-7.717-10.304-12.2-18.05-9.983c-7.475,2.15-11.754,9.963-9.95,18.175
		c4.288,19.533,1.667,27.396-10.396,31.162C10.833,87.471,10.621,87.5,10.417,87.5z"/>
	<path fill="#FFFFFF" d="M62.5,83.333c-0.533,0-1.067-0.204-1.475-0.608c-0.763-0.762-2.437-2.033-4.375-3.504
		c-7.463-5.662-19.954-15.137-23.237-26.562c-0.317-1.108,0.321-2.258,1.425-2.579c1.121-0.317,2.258,0.321,2.579,1.425
		c2.9,10.092,14.7,19.042,21.75,24.392c2.146,1.629,3.842,2.917,4.804,3.879c0.812,0.813,0.812,2.133,0,2.946
		C63.567,83.129,63.033,83.333,62.5,83.333z"/>
	<path fill="#FFFFFF" d="M31.25,100c-0.046,0-0.087,0-0.133-0.004c-1.146-0.071-2.021-1.058-1.95-2.208
		c0.154-2.412,1.267-14.454,8.333-14.454c5.196,0,8.325,4.25,10.396,7.062c0.554,0.75,1.037,1.425,1.492,1.883
		c0.813,0.812,0.813,2.133,0,2.946c-0.812,0.813-2.133,0.813-2.946,0c-0.575-0.575-1.204-1.408-1.904-2.354
		C42.779,90.475,40.592,87.5,37.5,87.5c-2.258,0-3.904,6.237-4.171,10.546C33.258,99.15,32.342,100,31.25,100z"/>
	<path fill="#FFFFFF" d="M18.75,95.833c-0.879,0-1.696-0.558-1.983-1.442c-0.354-1.096,0.246-2.267,1.338-2.625
		c5.267-1.713,8.771-12.646,6.992-18.217c-0.35-1.096,0.254-2.267,1.35-2.617c1.096-0.367,2.267,0.254,2.617,1.35
		c2.212,6.921-1.654,20.846-9.675,23.45C19.179,95.8,18.962,95.833,18.75,95.833z"/>
	<path fill="#FFFFFF" d="M2.083,54.167C0.933,54.167,0,53.233,0,52.083c0-19.529,15.888-35.417,35.417-35.417
		c19.225,0,26.104,11.104,31.125,19.212c2.371,3.821,4.417,7.125,7.021,7.971c1.096,0.354,1.696,1.529,1.338,2.625
		c-0.35,1.092-1.521,1.7-2.625,1.337C68.217,46.496,65.8,42.592,63,38.071c-4.758-7.679-10.679-17.238-27.583-17.238
		c-17.233,0-31.25,14.017-31.25,31.25C4.167,53.233,3.233,54.167,2.083,54.167z"/>
	<path fill="#FFFFFF" d="M4.167,68.75c-0.767,0-1.5-0.421-1.867-1.15C1.917,66.829,0,62.867,0,60.417
		c0-1.15,0.933-2.083,2.083-2.083s2.083,0.933,2.083,2.083c0,1.087,1.113,3.817,1.863,5.317c0.517,1.029,0.096,2.279-0.933,2.796
		C4.8,68.679,4.483,68.75,4.167,68.75z"/>
	<path fill="#FFFFFF" d="M64.583,25c-0.704,0-1.392-0.354-1.783-1.004C60.746,20.612,49.35,12.5,33.333,12.5
		c-16.658,0-25.575,8.513-27.387,11.496c-0.592,0.987-1.875,1.296-2.858,0.7c-0.983-0.596-1.3-1.875-0.7-2.858
		C4.667,18.079,14.671,8.333,33.333,8.333c17.55,0,30.171,8.792,33.029,13.504c0.6,0.983,0.283,2.263-0.7,2.862
		C65.325,24.904,64.954,25,64.583,25z"/>
	<path fill="#FFFFFF" d="M56.25,8.333c-0.225,0-0.454-0.037-0.679-0.112c-0.842-0.288-1.642-0.588-2.438-0.879
		c-4.387-1.633-8.533-3.175-19.8-3.175c-10.004,0-12.258,1.154-15.367,2.75C17.2,7.308,16.388,7.725,15.433,8.15
		c-1.046,0.475-2.283,0-2.754-1.046c-0.471-1.05,0-2.283,1.046-2.754c0.879-0.396,1.625-0.779,2.333-1.142
		C19.558,1.417,22.321,0,33.333,0C45.35,0,50.046,1.746,54.587,3.433c0.767,0.283,1.533,0.571,2.342,0.85
		c1.087,0.375,1.667,1.558,1.292,2.646C57.921,7.792,57.113,8.333,56.25,8.333z"/>
	<path fill="#FFFFFF" d="M72.917,37.5c-0.883,0-1.7-0.563-1.983-1.45c-0.954-2.971-3.925-7.829-3.958-7.875
		c-0.604-0.979-0.296-2.262,0.683-2.867c0.979-0.608,2.262-0.3,2.867,0.683c0.133,0.217,3.271,5.333,4.375,8.792
		c0.35,1.096-0.254,2.267-1.35,2.617C73.338,37.467,73.125,37.5,72.917,37.5z"/>
</g>
</svg>
