<?xml version="1.0" encoding="utf-8"?>
<!-- Generator: Adobe Illustrator 22.0.1, SVG Export Plug-In . SVG Version: 6.00 Build 0)  -->
<svg version="1.1" id="Layer_1" xmlns="http://www.w3.org/2000/svg" xmlns:xlink="http://www.w3.org/1999/xlink" x="0px" y="0px"
	 viewBox="0 0 71.9 100" style="enable-background:new 0 0 71.9 100;" xml:space="preserve">
<style type="text/css">
	.st0{fill:#FFFFFF;}
</style>
<g>
	<path class="st0" d="M36,11.4c-0.5,0-1-0.2-1.4-0.6C34.2,10.5,34,10,34,9.5c0-0.5,0.2-1,0.6-1.4c0.4-0.4,0.9-0.6,1.4-0.6
		c0.5,0,1,0.2,1.4,0.6c0.4,0.4,0.6,0.9,0.6,1.4c0,0.5-0.2,1-0.6,1.4C37,11.2,36.5,11.4,36,11.4z"/>
	<path class="st0" d="M57,54.1c0.4-0.4,0.6-0.9,0.6-1.4s-0.2-1-0.6-1.4c-0.4-0.4-0.9-0.6-1.4-0.6c-0.5,0-1,0.2-1.4,0.6
		c-0.4,0.4-0.6,0.9-0.6,1.4s0.2,1,0.6,1.4c0.4,0.4,0.9,0.6,1.4,0.6C56.1,54.7,56.6,54.5,57,54.1z"/>
	<path class="st0" d="M64.1,0H7.8C3.5,0,0,3.5,0,7.8v39.1c0,4.3,3.5,7.8,7.8,7.8h9c1.1,0,2-0.9,2-2c0-1.1-0.9-2-2-2h-9
		c-2.2,0-3.9-1.8-3.9-3.9V7.8c0-2.2,1.8-3.9,3.9-3.9h56.3c2.2,0,3.9,1.8,3.9,3.9v39.1c0,2.2-1.8,3.9-3.9,3.9c-1.1,0-2,0.9-2,2
		c0,1.1,0.9,2,2,2c4.3,0,7.8-3.5,7.8-7.8V7.8C71.9,3.5,68.4,0,64.1,0z"/>
	<path class="st0" d="M30.4,31.2c-1.1,0-2,0.9-2,2c0,1.1,0.9,2,2,2h11.2c1.1,0,2-0.9,2-2c0-1.1-0.9-2-2-2h-3.6V16.6c0-1.1-0.9-2-2-2
		h-3.6c-1.1,0-2,0.9-2,2c0,1.1,0.9,2,2,2H34v12.7H30.4z"/>
	<path class="st0" d="M70,96.1H57.1v-5.9c0-1.1-0.9-1.9-1.9-2l1.3-4.3c1.1-3.6,1.7-7.3,1.7-11V62.8c0-3.1-2.5-5.6-5.6-5.6
		c-0.6,0-1.2,0.1-1.8,0.3C50.3,54.9,48,53,45.3,53c-0.8,0-1.5,0.2-2.2,0.4c-0.9-2-2.8-3.3-5.1-3.3c-0.6,0-1.1,0.1-1.7,0.3v-4.3
		c0-3.1-2.5-5.6-5.6-5.6s-5.6,2.5-5.6,5.6V62l-0.6-1.1c-1.5-2.8-4.9-3.8-7.7-2.4c-2.4,1.2-3.6,3.9-3,6.5l2.8,11.5
		c0.7,2.7,1.8,5.3,3.5,7.5l3.2,4.4c-0.8,0.2-1.5,1-1.5,1.9v5.9H2c-1.1,0-2,0.9-2,2c0,1.1,0.9,2,2,2h68c1.1,0,2-0.9,2-2
		C71.9,97,71,96.1,70,96.1z M20.5,75.5l-2.8-11.5c-0.2-0.8,0.2-1.7,1-2.1c0.9-0.5,2-0.1,2.5,0.8l4.3,7.9c0.4,0.8,1.3,1.2,2.2,1
		c0.9-0.2,1.5-1,1.5-1.9V46.1c0-0.9,0.8-1.7,1.7-1.7c0.9,0,1.7,0.8,1.7,1.7v18.6c0,1.1,0.9,2,2,2s2-0.9,2-2v-9
		c0-0.9,0.8-1.7,1.7-1.7c0.9,0,1.7,0.8,1.7,1.7v9c0,1.1,0.9,2,2,2s2-0.9,2-2v-6.1c0-0.9,0.8-1.7,1.7-1.7c0.9,0,1.7,0.8,1.7,1.7v6.1
		c0,1.1,0.9,2,2,2s2-0.9,2-2v-1.9c0-0.9,0.8-1.7,1.7-1.7c0.9,0,1.7,0.8,1.7,1.7V73c0,3.3-0.5,6.7-1.5,9.9L51,88.3H28.2l-4.8-6.6
		C22,79.8,21,77.7,20.5,75.5z M25.8,92.2h1.4c0,0,0,0,0,0c0,0,0,0,0,0h25.3c0,0,0,0,0,0c0,0,0,0,0,0h0.7v3.9H25.8L25.8,92.2
		L25.8,92.2z"/>
</g>
</svg>
