<?xml version="1.0" encoding="utf-8"?>
<!-- Generator: Adobe Illustrator 17.0.0, SVG Export Plug-In . SVG Version: 6.00 Build 0)  -->
<!DOCTYPE svg PUBLIC "-//W3C//DTD SVG 1.1//EN" "http://www.w3.org/Graphics/SVG/1.1/DTD/svg11.dtd">
<svg version="1.1" id="Слой_1" xmlns="http://www.w3.org/2000/svg" xmlns:xlink="http://www.w3.org/1999/xlink" x="0px" y="0px"
	 width="89.78px" height="99.885px" viewBox="0 0 89.78 99.885" enable-background="new 0 0 89.78 99.885" xml:space="preserve">
<g>
	<path fill="none" stroke="#FFFFFF" stroke-width="4" stroke-linecap="round" stroke-linejoin="round" stroke-miterlimit="10" d="
		M44.634,97.882c-8.217,0-24.657,0-27.284,0c-2.688,0-6.193,0.162-9.576-1.737c-4.282-2.404-7.301-7.317-4.957-14.829
		c5.557-17.813,6.228-21.1,7.33-23.388s5.339-9.999,11.186-12.457"/>
	<path fill="none" stroke="#FFFFFF" stroke-width="4" stroke-linecap="round" stroke-linejoin="round" stroke-miterlimit="10" d="
		M44.761,25.269c-4.892,0-17.437,0.128-27.242,7.618c-3.051,2.33-2.818,6.44,0.233,8.982c3.472,2.893,8.141,6.525,12.817,10.381
		c7.669,6.324,14.321,11.384,14.321,11.384c-4.661,0-15.422,0-17.71,0s-6.186,1.158-6.186,6.751s0,27.501,0,27.501"/>
	<path fill="none" stroke="#FFFFFF" stroke-width="4" stroke-linecap="round" stroke-linejoin="round" stroke-miterlimit="10" d="
		M15.763,35.089c5.398-8.634,18.715-26.806,20.198-28.714C38.948,2.53,41.649,2,44.89,2"/>
	<path fill="none" stroke="#FFFFFF" stroke-width="4" stroke-linecap="round" stroke-linejoin="round" stroke-miterlimit="10" d="
		M45.147,97.882c8.217,0,24.657,0,27.284,0c2.688,0,6.193,0.162,9.576-1.737c4.282-2.404,7.301-7.317,4.957-14.829
		c-5.557-17.813-6.228-21.1-7.33-23.388c-1.102-2.288-5.339-9.999-11.186-12.457"/>
	<path fill="none" stroke="#FFFFFF" stroke-width="4" stroke-linecap="round" stroke-linejoin="round" stroke-miterlimit="10" d="
		M45.019,25.269c4.892,0,17.437,0.128,27.242,7.618c3.051,2.33,2.818,6.44-0.233,8.982c-3.472,2.893-8.141,6.525-12.817,10.381
		C51.542,58.574,44.89,63.634,44.89,63.634c4.661,0,15.422,0,17.71,0c2.288,0,6.186,1.158,6.186,6.751s0,27.501,0,27.501"/>
	<path fill="none" stroke="#FFFFFF" stroke-width="4" stroke-linecap="round" stroke-linejoin="round" stroke-miterlimit="10" d="
		M74.018,35.089C68.62,26.455,55.302,8.283,53.82,6.375C50.832,2.53,48.131,2,44.89,2"/>
	<path fill="none" stroke="#FFFFFF" stroke-width="4" stroke-linecap="round" stroke-linejoin="round" stroke-miterlimit="10" d="
		M32.734,26.319v4.885c0,6.706,5.436,12.142,12.142,12.142s12.142-5.436,12.142-12.142v-4.885"/>
</g>
</svg>
