<?xml version="1.0" encoding="utf-8"?>
<!-- Generator: Adobe Illustrator 22.0.1, SVG Export Plug-In . SVG Version: 6.00 Build 0)  -->
<svg version="1.1" id="Layer_1" xmlns="http://www.w3.org/2000/svg" xmlns:xlink="http://www.w3.org/1999/xlink" x="0px" y="0px"
	 viewBox="0 0 72.1 100" style="enable-background:new 0 0 72.1 100;" xml:space="preserve">
<style type="text/css">
	.st0{fill:#FFFFFF;}
</style>
<g>
	<g>
		<path class="st0" d="M67.5,23.7c2.6,0,4.7-2.1,4.7-4.7V4.7C72.1,2.1,70,0,67.5,0H4.7C2.1,0,0,2.1,0,4.7v14.4
			c0,2.6,2.1,4.7,4.7,4.7h29.4v1.8H4.7c-2.6,0-4.7,2.1-4.7,4.7v14.4c0,2.6,2.1,4.7,4.7,4.7h29.4V51H4.7C2.1,51,0,53.1,0,55.7v14.4
			c0,2.6,2.1,4.7,4.7,4.7h62.8c2.6,0,4.7-2.1,4.7-4.7V55.7c0-2.6-2.1-4.7-4.7-4.7H38.1v-1.8h29.4c2.6,0,4.7-2.1,4.7-4.7V30.2
			c0-2.6-2.1-4.7-4.7-4.7H38.1v-1.8L67.5,23.7L67.5,23.7z M68.2,55.7v14.4c0,0.4-0.3,0.7-0.7,0.7H4.7c-0.4,0-0.7-0.3-0.7-0.7V55.7
			C4,55.3,4.3,55,4.7,55h62.8C67.8,55,68.2,55.3,68.2,55.7z M68.2,30.2v14.4c0,0.4-0.3,0.7-0.7,0.7H4.7C4.3,45.3,4,45,4,44.6V30.2
			c0-0.4,0.3-0.7,0.7-0.7h62.8C67.8,29.5,68.2,29.8,68.2,30.2z M4,19.1V4.7C4,4.3,4.3,4,4.7,4h62.8c0.4,0,0.7,0.3,0.7,0.7v14.4
			c0,0.4-0.3,0.7-0.7,0.7H4.7C4.3,19.7,4,19.4,4,19.1z"/>
		<path class="st0" d="M59.6,17.4c3.1,0,5.6-2.5,5.6-5.6s-2.5-5.6-5.6-5.6S54,8.8,54,11.9S56.5,17.4,59.6,17.4z M59.6,10.3
			c0.9,0,1.6,0.7,1.6,1.6c0,0.9-0.7,1.6-1.6,1.6S58,12.7,58,11.9C58,11,58.7,10.3,59.6,10.3z"/>
		<path class="st0" d="M46.3,13.9h2.8c1.1,0,2-0.9,2-2s-0.9-2-2-2h-2.8c-1.1,0-2,0.9-2,2C44.3,13,45.2,13.9,46.3,13.9z"/>
		<path class="st0" d="M39.8,13.9c1.1,0,2-0.9,2-2s-0.9-2-2-2h-2.8c-1.1,0-2,0.9-2,2c0,1.1,0.9,2,2,2H39.8z"/>
		<path class="st0" d="M30.6,9.9H9c-1.1,0-2,0.9-2,2c0,1.1,0.9,2,2,2h21.6c1.1,0,2-0.9,2-2S31.7,9.9,30.6,9.9z"/>
		<path class="st0" d="M59.6,43c3.1,0,5.6-2.5,5.6-5.6s-2.5-5.6-5.6-5.6S54,34.3,54,37.4S56.5,43,59.6,43z M59.6,35.8
			c0.9,0,1.6,0.7,1.6,1.6S60.5,39,59.6,39S58,38.3,58,37.4S58.7,35.8,59.6,35.8z"/>
		<path class="st0" d="M46.3,39.4h2.8c1.1,0,2-0.9,2-2c0-1.1-0.9-2-2-2h-2.8c-1.1,0-2,0.9-2,2C44.3,38.5,45.2,39.4,46.3,39.4z"/>
		<path class="st0" d="M35.1,37.4c0,1.1,0.9,2,2,2h2.8c1.1,0,2-0.9,2-2c0-1.1-0.9-2-2-2h-2.8C36,35.4,35.1,36.3,35.1,37.4z"/>
		<path class="st0" d="M30.6,35.4H9c-1.1,0-2,0.9-2,2c0,1.1,0.9,2,2,2h21.6c1.1,0,2-0.9,2-2C32.6,36.3,31.7,35.4,30.6,35.4z"/>
		<path class="st0" d="M59.6,68.5c3.1,0,5.6-2.5,5.6-5.6c0-3.1-2.5-5.6-5.6-5.6S54,59.8,54,62.9C54,66,56.5,68.5,59.6,68.5z
			 M59.6,61.3c0.9,0,1.6,0.7,1.6,1.6c0,0.9-0.7,1.6-1.6,1.6S58,63.8,58,62.9C58,62,58.7,61.3,59.6,61.3z"/>
		<path class="st0" d="M46.3,64.9h2.8c1.1,0,2-0.9,2-2c0-1.1-0.9-2-2-2h-2.8c-1.1,0-2,0.9-2,2C44.3,64,45.2,64.9,46.3,64.9z"/>
		<path class="st0" d="M35.1,62.9c0,1.1,0.9,2,2,2h2.8c1.1,0,2-0.9,2-2c0-1.1-0.9-2-2-2h-2.8C36,60.9,35.1,61.8,35.1,62.9z"/>
		<path class="st0" d="M30.6,60.9H9c-1.1,0-2,0.9-2,2c0,1.1,0.9,2,2,2h21.6c1.1,0,2-0.9,2-2C32.6,61.8,31.7,60.9,30.6,60.9z"/>
	</g>
	<path class="st0" d="M67.5,76.3H38.1v-2.8h-4v2.8H4.7c-2.6,0-4.7,2.1-4.7,4.7v14.4c0,2.6,2.1,4.7,4.7,4.7h62.8
		c2.6,0,4.7-2.1,4.7-4.7V80.9C72.1,78.4,70,76.3,67.5,76.3z M68.2,95.3c0,0.4-0.3,0.7-0.7,0.7H4.7C4.3,96,4,95.7,4,95.3V80.9
		c0-0.4,0.3-0.7,0.7-0.7h62.8c0.4,0,0.7,0.3,0.7,0.7V95.3z"/>
	<path class="st0" d="M59.6,94.7c3.1,0,5.6-2.5,5.6-5.6c0-3.1-2.5-5.6-5.6-5.6S54,86.1,54,89.1C54,92.2,56.5,94.7,59.6,94.7z
		 M59.6,87.6c0.9,0,1.6,0.7,1.6,1.6c0,0.9-0.7,1.6-1.6,1.6S58,90,58,89.1C58,88.3,58.7,87.6,59.6,87.6z"/>
	<path class="st0" d="M46.3,91.1h2.8c1.1,0,2-0.9,2-2c0-1.1-0.9-2-2-2h-2.8c-1.1,0-2,0.9-2,2C44.3,90.2,45.2,91.1,46.3,91.1z"/>
	<path class="st0" d="M35.1,89.1c0,1.1,0.9,2,2,2h2.8c1.1,0,2-0.9,2-2c0-1.1-0.9-2-2-2h-2.8C36,87.2,35.1,88,35.1,89.1z"/>
	<path class="st0" d="M30.6,87.2H9c-1.1,0-2,0.9-2,2c0,1.1,0.9,2,2,2h21.6c1.1,0,2-0.9,2-2C32.6,88,31.7,87.2,30.6,87.2z"/>
</g>
</svg>
