<?xml version="1.0" encoding="utf-8"?>
<!-- Generator: Adobe Illustrator 17.0.0, SVG Export Plug-In . SVG Version: 6.00 Build 0)  -->
<!DOCTYPE svg PUBLIC "-//W3C//DTD SVG 1.1//EN" "http://www.w3.org/Graphics/SVG/1.1/DTD/svg11.dtd">
<svg version="1.1" id="Слой_1" xmlns="http://www.w3.org/2000/svg" xmlns:xlink="http://www.w3.org/1999/xlink" x="0px" y="0px"
	 width="92.966px" height="99.966px" viewBox="0 0 92.966 99.966" enable-background="new 0 0 92.966 99.966" xml:space="preserve">
<g>
	
		<path fill="none" stroke="#FFFFFF" stroke-width="3.9657" stroke-linecap="round" stroke-linejoin="round" stroke-miterlimit="10" d="
		M29.983,78.983c-4.865,0-28,0-28,0v-77h56v51"/>
	
		<line fill="none" stroke="#FFFFFF" stroke-width="4" stroke-linecap="round" stroke-linejoin="round" stroke-miterlimit="10" x1="19.983" y1="13.983" x2="39.983" y2="13.983"/>
	
		<line fill="none" stroke="#FFFFFF" stroke-width="3.9657" stroke-linecap="round" stroke-linejoin="round" stroke-miterlimit="10" x1="11.896" y1="39.983" x2="47.17" y2="39.983"/>
	
		<line fill="none" stroke="#FFFFFF" stroke-width="3.9657" stroke-linecap="round" stroke-linejoin="round" stroke-miterlimit="10" x1="69.983" y1="89.983" x2="82.983" y2="89.983"/>
	
		<line fill="none" stroke="#FFFFFF" stroke-width="3.9657" stroke-linecap="round" stroke-linejoin="round" stroke-miterlimit="10" x1="69.983" y1="81.983" x2="82.983" y2="81.983"/>
	
		<circle fill="none" stroke="#FFFFFF" stroke-width="3.9657" stroke-linecap="round" stroke-linejoin="round" stroke-miterlimit="10" cx="29.748" cy="40.177" r="17.908"/>
	
		<path fill="none" stroke="#FFFFFF" stroke-width="3.9657" stroke-linecap="round" stroke-linejoin="round" stroke-miterlimit="10" d="
		M38.983,39.983c0,9.89-4.261,18.101-9.235,18.101s-8.765-8.211-8.765-18.101s3.791-17.714,8.765-17.714
		S38.983,30.093,38.983,39.983z"/>
	
		<line fill="none" stroke="#FFFFFF" stroke-width="3.9657" stroke-linecap="round" stroke-linejoin="round" stroke-miterlimit="10" x1="29.983" y1="22.792" x2="29.983" y2="58.05"/>
	
		<rect x="38.983" y="62.983" fill="none" stroke="#FFFFFF" stroke-width="3.9657" stroke-linecap="round" stroke-linejoin="round" stroke-miterlimit="10" width="52" height="35"/>
	
		<circle fill="none" stroke="#FFFFFF" stroke-width="3.9657" stroke-linecap="round" stroke-linejoin="round" stroke-miterlimit="10" cx="54.338" cy="76.323" r="6.164"/>
	
		<path fill="none" stroke="#FFFFFF" stroke-width="3.9657" stroke-linecap="round" stroke-linejoin="round" stroke-miterlimit="10" d="
		M47.17,90.275c0-3.959,3.209-7.168,7.168-7.168s7.168,3.209,7.168,7.168"/>
</g>
</svg>
