<?xml version="1.0" encoding="utf-8"?>
<!-- Generator: Adobe Illustrator 22.0.1, SVG Export Plug-In . SVG Version: 6.00 Build 0)  -->
<svg version="1.1" id="Layer_1" xmlns="http://www.w3.org/2000/svg" xmlns:xlink="http://www.w3.org/1999/xlink" x="0px" y="0px"
	 viewBox="0 0 87.3 100.1" style="enable-background:new 0 0 87.3 100.1;" xml:space="preserve">
<style type="text/css">
	.st0{fill:#FFFFFF;}
</style>
<g>
	<path class="st0" d="M67.5,4.4c1,0.6,2.3,0.2,2.8-0.8c0.6-1,0.2-2.3-0.8-2.8c-1-0.6-2.3-0.2-2.8,0.8C66.2,2.5,66.6,3.8,67.5,4.4z"
		/>
	<path class="st0" d="M43.6,53.3c1.1,0,2.1-0.9,2.1-2.1c0-1.1-0.9-2.1-2.1-2.1c-1.1,0-2.1,0.9-2.1,2.1
		C41.6,52.3,42.5,53.3,43.6,53.3z"/>
	<path class="st0" d="M19.7,4.4c1-0.6,1.3-1.8,0.8-2.8c-0.6-1-1.8-1.3-2.8-0.8c-1,0.6-1.3,1.8-0.8,2.8C17.5,4.6,18.8,4.9,19.7,4.4z"
		/>
	<path class="st0" d="M43.6,14.6c1.1,0,2.1-0.9,2.1-2.1V2.1c0-1.1-0.9-2.1-2.1-2.1s-2.1,0.9-2.1,2.1v10.4
		C41.6,13.7,42.5,14.6,43.6,14.6z"/>
	<path class="st0" d="M25.2,18c0.4,0.7,1.1,1,1.8,1c0.4,0,0.7-0.1,1-0.3c1-0.6,1.3-1.8,0.8-2.8l-4.2-7.2c-0.6-1-1.8-1.3-2.8-0.8
		c-1,0.6-1.3,1.8-0.8,2.8L25.2,18z"/>
	<path class="st0" d="M59.2,18.8c0.3,0.2,0.7,0.3,1,0.3c0.7,0,1.4-0.4,1.8-1l4.2-7.2c0.6-1,0.2-2.3-0.8-2.8c-1-0.6-2.3-0.2-2.8,0.8
		l-4.2,7.2C57.9,16.9,58.2,18.2,59.2,18.8z"/>
	<path class="st0" d="M87.3,51.2C87.3,51.1,87.3,51.1,87.3,51.2c0-0.1,0-0.1,0-0.2c0,0,0,0,0-0.1c0,0,0,0,0-0.1c0,0,0-0.1,0-0.1
		c0,0,0,0,0-0.1c0,0,0,0,0-0.1c0,0,0-0.1,0-0.1c0,0,0,0,0-0.1c0,0,0,0,0,0c0,0,0-0.1,0-0.1c0,0,0,0,0-0.1c0,0,0,0,0,0
		c0,0,0-0.1,0-0.1c0,0,0,0,0-0.1c0,0,0,0,0,0l-12.5-22c0,0,0,0,0,0c0-0.1-0.1-0.1-0.1-0.2c0,0,0,0,0,0c-0.1-0.1-0.1-0.1-0.2-0.2
		c0,0,0,0,0,0c-0.1-0.1-0.1-0.1-0.2-0.2c0,0,0,0,0,0c-0.1,0-0.1-0.1-0.2-0.1c0,0,0,0-0.1,0c-0.1,0-0.1-0.1-0.2-0.1c0,0,0,0,0,0
		c0,0,0,0,0,0c-0.1,0-0.2-0.1-0.2-0.1c0,0,0,0-0.1,0c-0.1,0-0.1,0-0.2,0c0,0,0,0-0.1,0c-0.1,0-0.2,0-0.2,0c0,0,0,0,0,0h0
		c0,0,0,0,0,0H43.6h0H14.6c-0.1,0-0.2,0-0.3,0c0,0,0,0-0.1,0c-0.1,0-0.1,0-0.2,0c0,0,0,0-0.1,0c-0.1,0-0.1,0-0.2,0.1c0,0,0,0,0,0
		c0,0,0,0,0,0c-0.1,0-0.1,0.1-0.2,0.1c0,0,0,0-0.1,0c-0.1,0-0.1,0.1-0.2,0.1c0,0,0,0-0.1,0c-0.1,0-0.1,0.1-0.2,0.1c0,0,0,0,0,0
		c-0.1,0.1-0.1,0.1-0.2,0.2c0,0,0,0,0,0c0,0.1-0.1,0.1-0.1,0.2c0,0,0,0,0,0l-12.4,22c0,0,0,0,0,0l0,0c0,0,0,0,0,0c0,0,0,0,0,0.1
		c0,0,0,0.1,0,0.1c0,0,0,0,0,0c0,0,0,0,0,0.1c0,0,0,0.1,0,0.1c0,0,0,0,0,0c0,0,0,0,0,0.1c0,0,0,0.1,0,0.1c0,0,0,0,0,0c0,0,0,0,0,0.1
		c0,0,0,0.1,0,0.1c0,0,0,0,0,0.1c0,0,0,0,0,0.1c0,0,0,0.1,0,0.1c0,0,0,0,0,0.1c0,0,0,0,0,0c0,0,0,0,0,0c0,0,0,0.1,0,0.1
		c0,0,0,0,0,0.1c0,0,0,0,0,0.1c0,0,0,0.1,0,0.1c0,0,0,0,0,0.1c0,0,0,0,0,0.1c0,0,0,0,0,0.1c0,0,0,0,0,0.1c0,0,0,0,0,0.1
		c0,0,0,0,0,0.1c0,0,0,0,0,0.1c0,0,0,0,0,0.1c0,0,0,0,0,0.1c0,0,0,0,0,0.1c0,0,0,0,0,0.1c0,0,0,0,0,0.1c0,0,0,0,0,0.1c0,0,0,0,0,0.1
		c0,0,0,0,0,0c0,0,0,0,0,0.1c0,0,0,0,0,0.1c0,0,0,0,0,0l41.8,46.8c0.1,0.1,0.1,0.1,0.2,0.2c0,0,0,0,0,0c0.1,0.1,0.1,0.1,0.2,0.1
		c0,0,0,0,0.1,0c0.1,0,0.1,0.1,0.2,0.1c0,0,0,0,0.1,0c0.1,0,0.2,0.1,0.2,0.1c0,0,0,0,0.1,0c0.1,0,0.1,0,0.2,0c0,0,0.1,0,0.1,0
		c0.1,0,0.2,0,0.3,0c0,0,0,0,0,0c0.1,0,0.2,0,0.3,0c0,0,0.1,0,0.1,0c0.1,0,0.1,0,0.2,0c0,0,0,0,0.1,0c0.1,0,0.2-0.1,0.2-0.1
		c0,0,0,0,0.1,0c0.1,0,0.1-0.1,0.2-0.1c0,0,0,0,0.1,0c0.1,0,0.1-0.1,0.2-0.1c0,0,0,0,0,0c0.1-0.1,0.1-0.1,0.2-0.2l41.3-46.8
		c0,0,0,0,0,0c0,0,0,0,0,0c0,0,0,0,0.1-0.1c0,0,0,0,0,0c0,0,0,0,0-0.1c0,0,0,0,0-0.1c0,0,0,0,0-0.1c0,0,0,0,0-0.1c0,0,0,0,0-0.1
		c0,0,0,0,0-0.1c0,0,0,0,0-0.1c0,0,0,0,0-0.1c0,0,0,0,0-0.1c0,0,0,0,0-0.1c0,0,0,0,0-0.1c0,0,0-0.1,0-0.1c0,0,0,0,0-0.1
		c0,0,0,0,0-0.1c0,0,0-0.1,0-0.1c0,0,0,0,0-0.1c0,0,0,0,0-0.1C87.3,51.3,87.3,51.2,87.3,51.2C87.3,51.2,87.3,51.2,87.3,51.2
		C87.3,51.2,87.3,51.2,87.3,51.2z M14.3,33.8l6.5,15.3H5.6L14.3,33.8z M81.7,49.1h-15L73,33.9L81.7,49.1z M35.3,49.1h-6.8l15.1-16.8
		l15.3,16.8h-7c-1.1,0-2.1,0.9-2.1,2.1s0.9,2.1,2.1,2.1h8.4L43.9,92.7L27.1,53.3h8.2c1.1,0,2.1-0.9,2.1-2.1S36.5,49.1,35.3,49.1z
		 M62.9,47.3L48.3,31.2h21.3L62.9,47.3z M24.6,47.3l-6.9-16.1H39L24.6,47.3z M22.6,53.3L37,87.2L6.7,53.3H22.6z M64.9,53.3h15.7
		L50.7,87.1L64.9,53.3z"/>
</g>
</svg>
