<?xml version="1.0" encoding="utf-8"?>
<!-- Generator: Adobe Illustrator 17.0.0, SVG Export Plug-In . SVG Version: 6.00 Build 0)  -->
<!DOCTYPE svg PUBLIC "-//W3C//DTD SVG 1.1//EN" "http://www.w3.org/Graphics/SVG/1.1/DTD/svg11.dtd">
<svg version="1.1" id="Слой_1" xmlns="http://www.w3.org/2000/svg" xmlns:xlink="http://www.w3.org/1999/xlink" x="0px" y="0px"
	 width="121.756px" height="100px" viewBox="0 0 121.756 100" enable-background="new 0 0 121.756 100" xml:space="preserve">
<g>
	<path fill="#FFFFFF" d="M112.609,52.745c-1.344,0-2.585,0.328-3.685,0.822c-1.673-2.14-4.27-3.525-7.198-3.528
		c-1.513,0-2.905,0.401-4.1,1.003l-0.125,0.069l-3.738,2.217c-1.676-2.004-4.186-3.288-7.002-3.29c-1.513,0-2.905,0.401-4.1,1.003
		l-0.15,0.084l-14.313,8.766c-3.232-0.955-6.821-2.002-10.289-2.986c-3.658-1.038-7.176-2.002-9.996-2.714
		c-1.412-0.356-2.647-0.649-3.657-0.857c-0.506-0.105-0.955-0.188-1.353-0.249c-0.404-0.06-0.741-0.102-1.122-0.103
		c-0.294,0.001-0.548,0.027-0.838,0.063c-1.054,0.139-2.553,0.46-4.322,0.875c-3.613,0.849-8.225,2.084-10.773,2.778v-4.313
		c0-2.993-2.449-5.442-5.442-5.442H5.442C2.449,46.945,0,49.393,0,52.386v42.172C0,97.551,2.449,100,5.442,100h14.964
		c2.993,0,5.442-2.449,5.442-5.442v-3.274c3.23,0.703,10.397,2.251,17.955,3.804c5.111,1.049,10.393,2.099,14.756,2.891
		c2.182,0.396,4.134,0.726,5.733,0.96c1.612,0.233,2.813,0.377,3.729,0.382c0.713-0.003,1.388-0.137,2.117-0.339
		c1.356-0.382,2.9-1.031,4.667-1.89c6.15-2.998,14.983-8.615,23.316-14.174c8.318-5.552,16.097-11.034,19.909-13.66
		c2.386-1.645,3.728-4.424,3.728-7.365C121.752,56.843,117.662,52.748,112.609,52.745z M21.766,94.558c0,0.737-0.623,1.36-1.36,1.36
		H5.442c-0.737,0-1.36-0.623-1.36-1.36V52.386c0-0.737,0.623-1.36,1.36-1.36h14.964c0.737,0,1.36,0.623,1.36,1.36V94.558z
		 M115.715,65.897c-4.688,3.23-15.178,10.637-25.332,17.232c-5.073,3.295-10.061,6.384-14.152,8.624
		c-2.043,1.12-3.866,2.024-5.323,2.63c-0.728,0.302-1.364,0.529-1.869,0.669c-0.502,0.143-0.88,0.19-1.018,0.188
		c-0.445,0.004-1.623-0.113-3.137-0.339c-5.36-0.785-15.393-2.789-24.031-4.591c-4.323-0.902-8.305-1.754-11.207-2.379
		c-1.685-0.363-2.986-0.648-3.797-0.823V60.931c0.399-0.11,0.921-0.253,1.548-0.423c2.151-0.583,5.433-1.458,8.377-2.183
		c1.471-0.363,2.86-0.687,3.963-0.917c0.55-0.114,1.03-0.205,1.398-0.264c0.362-0.06,0.643-0.082,0.646-0.077
		c0.007-0.001,0.22,0.012,0.512,0.057c1.126,0.169,3.435,0.709,6.247,1.445c8.474,2.213,21.836,6.214,27.234,7.854
		c1.868,0.563,3.559,1.412,4.669,2.442c0.558,0.514,0.977,1.064,1.258,1.658c0.282,0.597,0.441,1.243,0.443,2.034
		c-0.001,1.601-0.643,3.032-1.692,4.084c-1.042,1.038-2.457,1.673-4.036,1.688l-5.266-0.516l-17.972-2.307
		c-1.118-0.143-2.141,0.646-2.286,1.764c-0.144,1.118,0.648,2.14,1.764,2.284l18.031,2.314l5.58,0.547h0.101
		c5.443-0.001,9.855-4.413,9.858-9.858c0.003-1.37-0.301-2.658-0.838-3.786c-0.809-1.699-2.111-3.015-3.583-4.016
		c-1.477-1.004-3.145-1.719-4.843-2.236c-0.947-0.287-2.14-0.649-3.503-1.058l11.075-6.784c0.718-0.354,1.453-0.554,2.231-0.555
		c1.32-0.001,2.511,0.51,3.412,1.337l-5.471,3.245c-0.968,0.574-1.288,1.827-0.713,2.796c0.575,0.968,1.827,1.29,2.797,0.714
		l12.701-7.533c0.722-0.358,1.461-0.559,2.242-0.559c1.408-0.001,2.674,0.585,3.593,1.516l-14.789,8.77
		c-0.97,0.574-1.288,1.827-0.713,2.797c0.575,0.968,1.827,1.288,2.797,0.713l15.991-9.485c0.155-0.026,0.311-0.064,0.464-0.129
		c0.328-0.139,0.594-0.359,0.8-0.62l0.499-0.297c0.722-0.358,1.461-0.559,2.242-0.559c1.403,0.001,2.657,0.565,3.581,1.484
		c0.92,0.924,1.483,2.179,1.484,3.583C117.674,63.604,116.89,65.098,115.715,65.897z"/>
	<path fill="#FFFFFF" d="M58.365,35.246c-1.253-1.078-1.895-2.45-1.909-4.202c0-1.128-0.914-2.041-2.041-2.041
		c-1.126,0-2.041,0.913-2.041,2.041c-0.015,2.853,1.201,5.514,3.353,7.317c1.846,1.562,4.308,2.498,7.165,2.729v1.772
		c0,1.126,0.913,2.041,2.041,2.041c1.126,0,2.041-0.914,2.041-2.041v-1.846c2.31-0.233,4.467-0.803,6.312-1.945
		c1.26-0.786,2.352-1.875,3.09-3.25c0.743-1.371,1.118-2.993,1.115-4.778c0.003-1.862-0.397-3.514-1.156-4.891
		c-0.661-1.205-1.578-2.17-2.597-2.921c-1.792-1.314-3.868-2.036-5.929-2.62c-0.28-0.079-0.555-0.143-0.835-0.216V7.939
		c1.99,0.298,3.462,0.918,4.442,1.684c0.694,0.539,1.171,1.143,1.499,1.822c0.322,0.679,0.495,1.445,0.496,2.323
		c0,1.126,0.914,2.041,2.041,2.041c1.126,0,2.041-0.914,2.041-2.041c0.001-1.424-0.291-2.819-0.895-4.082
		c-0.903-1.903-2.511-3.462-4.602-4.477c-1.446-0.705-3.133-1.152-5.02-1.374V2.041C66.976,0.913,66.062,0,64.936,0
		c-1.128,0-2.041,0.913-2.041,2.041v1.682c-1.479,0.114-2.806,0.404-3.982,0.852c-2.31,0.873-4.001,2.364-5.047,4.039
		c-1.05,1.676-1.488,3.498-1.49,5.156c-0.005,1.745,0.415,3.317,1.205,4.597c0.687,1.121,1.62,1.991,2.638,2.66
		c1.789,1.169,3.832,1.797,5.869,2.341c0.268,0.069,0.537,0.137,0.805,0.204v13.4C60.909,36.751,59.387,36.114,58.365,35.246z
		 M58.147,17.394c-0.563-0.426-0.952-0.873-1.231-1.419c-0.276-0.55-0.457-1.231-0.46-2.207c-0.001-1.254,0.46-2.756,1.586-3.9
		c0.567-0.578,1.307-1.094,2.321-1.48c0.698-0.265,1.541-0.461,2.529-0.563v11.527C60.906,18.82,59.193,18.197,58.147,17.394z
		 M70.29,25.879c1.033,0.547,1.777,1.167,2.283,1.932c0.501,0.769,0.831,1.733,0.838,3.232c-0.003,1.234-0.248,2.133-0.626,2.839
		c-0.288,0.53-0.66,0.967-1.144,1.359c-0.724,0.582-1.728,1.052-2.979,1.363c-0.522,0.131-1.092,0.227-1.687,0.302V24.623
		C68.222,24.984,69.365,25.381,70.29,25.879z"/>
</g>
</svg>
