<?xml version="1.0" encoding="utf-8"?>
<!-- Generator: Adobe Illustrator 22.0.1, SVG Export Plug-In . SVG Version: 6.00 Build 0)  -->
<svg version="1.1" id="Layer_1" xmlns="http://www.w3.org/2000/svg" xmlns:xlink="http://www.w3.org/1999/xlink" x="0px" y="0px"
	 viewBox="0 0 84.6 100" style="enable-background:new 0 0 84.6 100;" xml:space="preserve">
<style type="text/css">
	.st0{fill:#FFFFFF;}
</style>
<g>
	<path class="st0" d="M82.6,0H14.1c-1.1,0-2,0.9-2,2v68.2L1.9,80.4c-2.5,2.5-2.5,6.6,0,9.2c1.3,1.3,2.9,1.9,4.6,1.9s3.3-0.6,4.6-1.9
		l1.1-1.1V98c0,1.1,0.9,2,2,2h52.1c0.5,0,1-0.2,1.4-0.6L84,83c0.4-0.4,0.6-0.9,0.6-1.4V2C84.6,0.9,83.7,0,82.6,0z M8.2,86.7
		c-1,1-2.6,1-3.5,0s-1-2.6,0-3.5l19.1-19.1l3.5,3.5L8.2,86.7z M16.1,84.5L31.5,69c0.8-0.8,0.8-2,0-2.8l-1.8-1.8l3.8-3.8
		c4.1,3.4,9.4,5.5,15.1,5.5c13,0,23.6-10.6,23.6-23.6S61.7,18.9,48.6,18.9S25,29.5,25,42.5c0,5.8,2.1,11.2,5.7,15.3l-3.8,3.8
		l-1.7-1.7c-0.4-0.4-0.9-0.6-1.4-0.6c-0.5,0-1,0.2-1.4,0.6l-6.3,6.3V4h64.5v75.6l-14.4,0c0,0,0,0,0,0c-0.5,0-1,0.2-1.4,0.6
		c-0.4,0.4-0.6,0.9-0.6,1.4l0,14.4H16.1V84.5z M29,42.5c0-10.8,8.8-19.6,19.6-19.6s19.6,8.8,19.6,19.6s-8.8,19.6-19.6,19.6
		S29,53.3,29,42.5z M68.1,83.6l9.6,0l-9.6,9.6L68.1,83.6z"/>
	<path class="st0" d="M37.6,44.6h22.3c1.1,0,2-0.9,2-2s-0.9-2-2-2H37.6c-1.1,0-2,0.9-2,2S36.5,44.6,37.6,44.6z"/>
	<path class="st0" d="M61.9,50.3c0-1.1-0.9-2-2-2H37.6c-1.1,0-2,0.9-2,2s0.9,2,2,2h22.3C61,52.3,61.9,51.4,61.9,50.3z"/>
	<path class="st0" d="M37.6,36.6h9c1.1,0,2-0.9,2-2c0-1.1-0.9-2-2-2h-9c-1.1,0-2,0.9-2,2C35.6,35.7,36.5,36.6,37.6,36.6z"/>
	<path class="st0" d="M52.5,36.6h1.2c1.1,0,2-0.9,2-2c0-1.1-0.9-2-2-2h-1.2c-1.1,0-2,0.9-2,2C50.5,35.7,51.4,36.6,52.5,36.6z"/>
</g>
</svg>
