<?xml version="1.0" encoding="utf-8"?>
<!-- Generator: Adobe Illustrator 22.0.1, SVG Export Plug-In . SVG Version: 6.00 Build 0)  -->
<svg version="1.1" id="Layer_1" xmlns="http://www.w3.org/2000/svg" xmlns:xlink="http://www.w3.org/1999/xlink" x="0px" y="0px"
	 viewBox="0 0 73 100" style="enable-background:new 0 0 73 100;" xml:space="preserve">
<style type="text/css">
	.st0{fill:#FFFFFF;}
</style>
<g>
	<path class="st0" d="M71,100H2c-1.1,0-2-0.9-2-2V2c0-1.1,0.9-2,2-2h50c0.5,0,1,0.2,1.4,0.6l19,19C72.8,20,73,20.5,73,21v77
		C73,99.1,72.1,100,71,100z M4,96h65V21.8L51.2,4H4V96z"/>
	<path class="st0" d="M71,23H52c-1.1,0-2-0.9-2-2V2c0-0.8,0.5-1.5,1.2-1.8C52-0.2,52.8,0,53.4,0.6l19,19c0.6,0.6,0.7,1.4,0.4,2.2
		C72.5,22.5,71.8,23,71,23z M54,19h12.2L54,6.8V19z"/>
	<path class="st0" d="M18,27c-1.1,0-2-0.9-2-2V10c0-1.1,0.9-2,2-2s2,0.9,2,2v15C20,26.1,19.1,27,18,27z"/>
	<path class="st0" d="M25.5,19.5h-15c-1.1,0-2-0.9-2-2s0.9-2,2-2h15c1.1,0,2,0.9,2,2S26.6,19.5,25.5,19.5z"/>
	<path class="st0" d="M61,49H11c-1.1,0-2-0.9-2-2s0.9-2,2-2h50c1.1,0,2,0.9,2,2S62.1,49,61,49z"/>
	<path class="st0" d="M61,57H11c-1.1,0-2-0.9-2-2s0.9-2,2-2h50c1.1,0,2,0.9,2,2S62.1,57,61,57z"/>
	<path class="st0" d="M36,65H11c-1.1,0-2-0.9-2-2c0-1.1,0.9-2,2-2h25c1.1,0,2,0.9,2,2C38,64.1,37.1,65,36,65z"/>
	<path class="st0" d="M36,73H11c-1.1,0-2-0.9-2-2s0.9-2,2-2h25c1.1,0,2,0.9,2,2S37.1,73,36,73z"/>
	<path class="st0" d="M61,65H44c-1.1,0-2-0.9-2-2c0-1.1,0.9-2,2-2h17c1.1,0,2,0.9,2,2C63,64.1,62.1,65,61,65z"/>
	<path class="st0" d="M61,73H44c-1.1,0-2-0.9-2-2s0.9-2,2-2h17c1.1,0,2,0.9,2,2S62.1,73,61,73z"/>
	<path class="st0" d="M61,90H44c-1.1,0-2-0.9-2-2s0.9-2,2-2h17c1.1,0,2,0.9,2,2S62.1,90,61,90z"/>
</g>
</svg>
