<?xml version="1.0" encoding="utf-8"?>
<!-- Generator: Adobe Illustrator 17.0.0, SVG Export Plug-In . SVG Version: 6.00 Build 0)  -->
<!DOCTYPE svg PUBLIC "-//W3C//DTD SVG 1.1//EN" "http://www.w3.org/Graphics/SVG/1.1/DTD/svg11.dtd">
<svg version="1.1" id="Слой_1" xmlns="http://www.w3.org/2000/svg" xmlns:xlink="http://www.w3.org/1999/xlink" x="0px" y="0px"
	 width="77.031px" height="99.855px" viewBox="0 0 77.031 99.855" enable-background="new 0 0 77.031 99.855" xml:space="preserve">
<g>
	<path fill="none" stroke="#FFFFFF" stroke-width="4" stroke-linecap="round" stroke-linejoin="round" stroke-miterlimit="10" d="
		M2,96.492l15.674-22.83c0,0-3.067-19.763-3.748-24.534s-1.193-13.455,4.43-21.72S36.599,2,36.599,2s1.018,12.075,0.832,16.164
		s-6.639,14.78-7.661,16.824c-1.022,2.044-1.022,18.4-1.022,18.4"/>
	<path fill="none" stroke="#FFFFFF" stroke-width="4" stroke-linecap="round" stroke-linejoin="round" stroke-miterlimit="10" d="
		M27.215,97.855c2.556-6.645,11.217-27.259,11.217-27.259s0-29.56,0-31.774s-4.898-4.8-8.889-3.066"/>
	
		<line fill="none" stroke="#FFFFFF" stroke-width="4" stroke-linecap="round" stroke-linejoin="round" stroke-miterlimit="10" x1="12.734" y1="82.264" x2="30.491" y2="88.631"/>
</g>
<g>
	<path fill="none" stroke="#FFFFFF" stroke-width="4" stroke-linecap="round" stroke-linejoin="round" stroke-miterlimit="10" d="
		M75.031,96.492l-15.674-22.83c0,0,3.067-19.763,3.748-24.534s1.193-13.455-4.43-21.72S40.599,2,40.599,2
		s-1.353,12.075-1.168,16.164s6.807,14.78,7.829,16.824c1.022,2.044,1.022,18.4,1.022,18.4"/>
	<path fill="none" stroke="#FFFFFF" stroke-width="4" stroke-linecap="round" stroke-linejoin="round" stroke-miterlimit="10" d="
		M49.816,97.855c-2.556-6.645-11.217-27.259-11.217-27.259s0-29.56,0-31.774s4.898-4.8,8.889-3.066"/>
	
		<line fill="none" stroke="#FFFFFF" stroke-width="4" stroke-linecap="round" stroke-linejoin="round" stroke-miterlimit="10" x1="64.297" y1="82.264" x2="46.54" y2="88.631"/>
</g>
</svg>
