<?xml version="1.0" encoding="utf-8"?>
<!-- Generator: Adobe Illustrator 22.0.1, SVG Export Plug-In . SVG Version: 6.00 Build 0)  -->
<svg version="1.1" id="Layer_1" xmlns="http://www.w3.org/2000/svg" xmlns:xlink="http://www.w3.org/1999/xlink" x="0px" y="0px"
	 viewBox="0 0 124 99.4" style="enable-background:new 0 0 124 99.4;" xml:space="preserve">
<style type="text/css">
	.st0{fill:#FFFFFF;}
</style>
<g>
	<path class="st0" d="M48.7,47.9h26.5c4.3,0,7.8-3.5,7.8-7.8V23.7c0-1.1-0.9-2-2-2h-3.4v-6.1C77.6,7,70.6,0,62,0S46.3,7,46.3,15.7
		v6.1h-3.4c-1.1,0-2,0.9-2,2v16.4C40.9,44.4,44.4,47.9,48.7,47.9L48.7,47.9z M50.4,15.7c0-6.4,5.2-11.6,11.6-11.6
		s11.6,5.2,11.6,11.6v6.1h-1.9v-5.1c0-5.3-4.3-9.7-9.7-9.7s-9.7,4.3-9.7,9.7v5.1h-1.9V15.7z M56.4,21.7v-5.1c0-3.1,2.5-5.6,5.6-5.6
		s5.6,2.5,5.6,5.6v5.1H56.4z M44.9,25.8H79v14.3c0,2.1-1.7,3.8-3.8,3.8H48.7c-2.1,0-3.8-1.7-3.8-3.8V25.8z M44.9,25.8"/>
	<path class="st0" d="M62,39.6c1.1,0,2-0.9,2-2v-5.5c0-1.1-0.9-2-2-2c-1.1,0-2,0.9-2,2v5.5C60,38.7,60.9,39.6,62,39.6L62,39.6z
		 M62,39.6"/>
	<path class="st0" d="M112.6,57.2H11.3C5.1,57.2,0,62.3,0,68.6v19.5c0,6.3,5.1,11.3,11.3,11.3h101.3c6.3,0,11.3-5.1,11.3-11.3V68.6
		C124,62.3,118.9,57.2,112.6,57.2L112.6,57.2z M4.1,88.1V68.6c0-4,3.3-7.3,7.3-7.3h81.3v34.1H11.3C7.3,95.4,4.1,92.1,4.1,88.1
		L4.1,88.1z M119.9,88.1c0,4-3.3,7.3-7.3,7.3H96.7V61.3h15.9c4,0,7.3,3.3,7.3,7.3V88.1z M119.9,88.1"/>
	<path class="st0" d="M108.4,70.1c-0.8-0.8-2.1-0.8-2.9,0c-0.8,0.8-0.8,2.1,0,2.9l5.4,5.4l-5.4,5.4c-0.8,0.8-0.8,2.1,0,2.9
		c0.4,0.4,0.9,0.6,1.4,0.6c0.5,0,1-0.2,1.4-0.6l6.8-6.8c0.4-0.4,0.6-0.9,0.6-1.4c0-0.5-0.2-1.1-0.6-1.4L108.4,70.1z M108.4,70.1"/>
	<path class="st0" d="M18.9,71c-4,0-7.3,3.3-7.3,7.3c0,4,3.3,7.3,7.3,7.3c4,0,7.3-3.3,7.3-7.3C26.2,74.3,22.9,71,18.9,71L18.9,71z
		 M18.9,81.6c-1.8,0-3.3-1.5-3.3-3.3c0-1.8,1.5-3.3,3.3-3.3c1.8,0,3.3,1.5,3.3,3.3C22.1,80.1,20.7,81.6,18.9,81.6L18.9,81.6z
		 M18.9,81.6"/>
	<path class="st0" d="M34.7,71c-4,0-7.3,3.3-7.3,7.3c0,4,3.3,7.3,7.3,7.3c4,0,7.3-3.3,7.3-7.3C42,74.3,38.8,71,34.7,71L34.7,71z
		 M34.7,81.6c-1.8,0-3.3-1.5-3.3-3.3c0-1.8,1.5-3.3,3.3-3.3c1.8,0,3.3,1.5,3.3,3.3C38,80.1,36.5,81.6,34.7,81.6L34.7,81.6z
		 M34.7,81.6"/>
	<path class="st0" d="M50.6,71c-4,0-7.3,3.3-7.3,7.3c0,4,3.3,7.3,7.3,7.3s7.3-3.3,7.3-7.3C57.9,74.3,54.6,71,50.6,71L50.6,71z
		 M50.6,81.6c-1.8,0-3.3-1.5-3.3-3.3c0-1.8,1.5-3.3,3.3-3.3c1.8,0,3.3,1.5,3.3,3.3C53.9,80.1,52.4,81.6,50.6,81.6L50.6,81.6z
		 M50.6,81.6"/>
	<path class="st0" d="M72.9,76.3h-8.2c-1.1,0-2,0.9-2,2c0,1.1,0.9,2,2,2h8.2c1.1,0,2-0.9,2-2C74.9,77.2,74,76.3,72.9,76.3L72.9,76.3
		z M72.9,76.3"/>
</g>
</svg>
