<?xml version="1.0" encoding="utf-8"?>
<!-- Generator: Adobe Illustrator 22.0.1, SVG Export Plug-In . SVG Version: 6.00 Build 0)  -->
<svg version="1.1" id="Layer_1" xmlns="http://www.w3.org/2000/svg" xmlns:xlink="http://www.w3.org/1999/xlink" x="0px" y="0px"
	 viewBox="0 0 135 100.1" style="enable-background:new 0 0 135 100.1;" xml:space="preserve">
<style type="text/css">
	.st0{fill:#FFFFFF;}
</style>
<g>
	<path class="st0" d="M134.4,27.6L108.2,1.5c-0.8-0.8-2.2-0.8-3,0L92,14.6c-0.4,0.4-0.6,1-0.6,1.5c0,0.6,0.2,1.1,0.6,1.5l1.3,1.3
		l-3,3c-1.9,1.9-5,2.5-7.5,1.3c-2.4-1.1-5.1-1.7-7.7-1.7c-3.1,0-6.2,0.8-8.9,2.3c-1.1-0.3-2.3-0.4-3.5-0.4c-1.7,0-3.4,0.3-5,0.9
		c-2.5,0.9-5.3,0.4-7.1-1.5l-5.4-5.4l0.6-0.6c0.4-0.4,0.6-1,0.6-1.5c0-0.6-0.2-1.1-0.6-1.5L32.8,0.6c-0.8-0.8-2.2-0.8-3,0L0.6,29.8
		c-0.8,0.8-0.8,2.2,0,3l13.1,13.1c0.4,0.4,1,0.6,1.5,0.6s1.1-0.2,1.5-0.6l0.8-0.8l3.8,3.8c1,1,1.6,2.2,1.8,3.5
		c1.3,6.8,4.5,12.9,9.4,17.8l0.7,0.7c-1.4,1.4-2.1,3.3-2.1,5.3c0,2.1,0.8,4,2.3,5.5c1.5,1.5,3.5,2.3,5.5,2.3c0.1,0,0.3,0,0.4,0
		c-0.1,2.1,0.6,4.3,2.3,5.9c1.5,1.5,3.4,2.3,5.5,2.3c0.1,0,0.1,0,0.2,0c0,2,0.7,4.1,2.3,5.7c1.5,1.5,3.4,2.3,5.5,2.3
		c2.1,0,4-0.8,5.5-2.3c0.1-0.1,0.2-0.3,0.4-0.4c0.8,0.3,1.6,0.4,2.4,0.4c1.9,0,3.8-0.8,5.1-2.1c0.7-0.7,1.3-1.6,1.6-2.5l0.2,0.2
		c1.4,1.4,3.3,2.1,5.1,2.1c1.9,0,3.7-0.7,5.1-2.1c0.8-0.8,1.3-1.6,1.7-2.6c1.3,0.9,2.8,1.4,4.3,1.4c1.9,0,3.7-0.7,5.1-2.1
		c1.4-1.4,2.1-3.2,2.1-5.1c0-0.6-0.1-1.2-0.2-1.7c1.4-0.3,2.6-1,3.7-2c1.4-1.4,2.1-3.2,2.1-5.1c0-1.5-0.5-3-1.3-4.2l1.7-1.7
		c4.9-4.9,8.2-11.2,9.4-18c0.2-1.1,0.8-2.2,1.6-3.1l6.4-6.4l1.1,1.1c0.4,0.4,1,0.6,1.5,0.6c0.6,0,1.1-0.2,1.5-0.6l13.1-13.1
		c0.4-0.4,0.6-1,0.6-1.5C135,28.6,134.8,28,134.4,27.6z M5.2,31.3L31.3,5.2l10,10L15.2,41.3L5.2,31.3z M36.5,78.7
		c-0.7-0.7-1-1.5-1-2.4c0-0.9,0.4-1.8,1-2.4c0.7-0.7,1.6-1,2.4-1s1.8,0.3,2.4,1c1.3,1.3,1.3,3.5,0,4.9C40,80,37.8,80,36.5,78.7z
		 M47,87.8c-0.9,0-1.8-0.4-2.4-1c-1.3-1.3-1.3-3.5,0-4.9c0.7-0.7,1.6-1,2.4-1c0.9,0,1.8,0.3,2.4,1c1.3,1.3,1.3,3.5,0,4.9
		C48.8,87.5,48,87.8,47,87.8z M57.4,94.8c-0.7,0.7-1.5,1-2.4,1c-0.9,0-1.8-0.4-2.4-1c-1.3-1.3-1.3-3.5,0-4.9c0.7-0.7,1.6-1,2.4-1
		c0.9,0,1.8,0.3,2.4,1C58.8,91.2,58.8,93.4,57.4,94.8z M94,78.2c-0.6,0.6-1.3,0.9-2.1,0.9c-0.8,0-1.5-0.3-2.1-0.9L69,57.3
		c-0.8-0.8-2.2-0.8-3,0c-0.8,0.8-0.8,2.2,0,3l22.5,22.5c0.6,0.6,0.9,1.3,0.9,2.1c0,0.8-0.3,1.5-0.9,2.1c-1.1,1.1-3,1.1-4.2,0
		l-3.8-3.8c0,0,0,0-0.1-0.1c0,0,0,0,0,0L62.9,65.7c-0.8-0.8-2.2-0.8-3,0s-0.8,2.2,0,3l17.5,17.5c0.5,0.5,0.8,1.3,0.8,2
		c0,0.8-0.3,1.5-0.9,2.1c-1.1,1.1-3,1.1-4.2,0l-19-19c-0.8-0.8-2.2-0.8-3,0c-0.8,0.8-0.8,2.2,0,3l14.1,14.1c0,0,0,0,0,0
		c0.6,0.6,0.9,1.3,0.9,2.1c0,0.8-0.3,1.5-0.9,2.1c-0.6,0.6-1.3,0.9-2.1,0.9c-0.2,0-0.4,0-0.6-0.1c0.3-2.4-0.4-4.8-2.2-6.6
		C59,85.4,57,84.6,55,84.6c-0.1,0-0.1,0-0.2,0c0-2-0.7-4.1-2.3-5.7c-1.5-1.5-3.4-2.3-5.5-2.3c-0.1,0-0.3,0-0.4,0
		c0.1-2.1-0.6-4.3-2.3-5.9c-2-2-4.7-2.6-7.2-2.1l-1.5-1.5c-4.3-4.3-7.1-9.6-8.2-15.5c-0.4-2.2-1.5-4.1-3-5.7l-3.8-3.8l21.6-21.6
		l5.4,5.4c2.1,2.1,4.9,3.2,7.8,3.2c1.3,0,2.6-0.2,3.9-0.7c0.6-0.2,1.2-0.4,1.9-0.5L47.8,41.2c-1.6,1.6-2.5,3.8-2.5,6.1
		c0,2.3,0.9,4.5,2.5,6.1c1.7,1.7,3.9,2.5,6.1,2.5c2.2,0,4.4-0.8,6.1-2.5l6.7-6.7l1.8,1.8c0,0,0,0,0,0l0.1,0.1l0.1,0.1c0,0,0,0,0,0
		l0,0c0,0,0,0,0.1,0.1L94,74.1c0.6,0.6,0.9,1.3,0.9,2.1C94.9,76.9,94.6,77.6,94,78.2z M107.6,46c-1.5,1.5-2.5,3.4-2.8,5.4
		c-1.1,6-3.9,11.4-8.2,15.7l-1.7,1.7L81.3,55.2c0.3,0,0.6,0,0.9,0c1.4,0,2.8-0.2,4.2-0.8c1.1-0.5,1.6-1.7,1.2-2.8
		c-0.5-1.1-1.7-1.6-2.8-1.2c-5.5,2.3-12.2-4-12.9-4.7c0,0,0,0,0,0l-0.1-0.1c0,0,0,0,0,0l-0.1-0.1c0,0,0,0,0,0l-1.8-1.8l2.1-2.1
		c0.8-0.8,0.8-2.2,0-3c-0.8-0.8-2.2-0.8-3,0l-3.6,3.6c0,0,0,0,0,0c0,0,0,0,0,0L57,50.4c-1.7,1.7-4.4,1.7-6.1,0
		c-0.8-0.8-1.3-1.9-1.3-3.1c0-1.2,0.5-2.2,1.3-3.1L65,30.1c0.8-0.8,1.7-1.5,2.6-2.1c2.2-1.4,4.8-2.1,7.5-2.1c2,0,4.1,0.4,5.9,1.3
		c4.2,1.9,9.1,1,12.4-2.2l3-3L114,39.6L107.6,46z M119.8,39.2L96.6,16.1l10-10l23.1,23.1L119.8,39.2z"/>
	<circle class="st0" cx="121.9" cy="30.8" r="2.2"/>
	<circle class="st0" cx="14.1" cy="32.9" r="2.2"/>
</g>
</svg>
