<?xml version="1.0" encoding="utf-8"?>
<!-- Generator: Adobe Illustrator 22.0.1, SVG Export Plug-In . SVG Version: 6.00 Build 0)  -->
<svg version="1.1" id="Layer_1" xmlns="http://www.w3.org/2000/svg" xmlns:xlink="http://www.w3.org/1999/xlink" x="0px" y="0px"
	 viewBox="0 0 99.4 100" style="enable-background:new 0 0 99.4 100;" xml:space="preserve">
<style type="text/css">
	.st0{fill:#FFFFFF;}
</style>
<path class="st0" d="M86.9,8.5V2.1C86.9,0.9,86,0,84.8,0H66.1C64.9,0,64,0.9,64,2.1v6.4c-7.1,1-12.5,7.1-12.5,14.4v18.4l-1.1-1.1
	c-0.8-0.8-2.1-0.8-2.9,0l-23,23V35.4c0-5.8,4.7-10.4,10.4-10.4h12.5v-4.2H36.9v-4.2h12.5v-4.2H34.8c-1.2,0-2.1,0.9-2.1,2.1V21
	c-7.1,1-12.5,7.1-12.5,14.4v31.9L8.9,78.7c-0.8,0.8-0.8,2.1,0,2.9l3,3l-5.9,5.9l-3-3L0,90.5l8.9,8.9l2.9-2.9l-3-3l5.9-5.9l3,3
	c0.4,0.4,0.9,0.6,1.5,0.6c0.3,0,0.7-0.1,1-0.2v2.9c0,3.5,2.8,6.3,6.3,6.3h20.8v-4.2H26.5c-1.2,0-2.1-0.9-2.1-2.1v-6.9l27.1-27.1v34
	c0,3.5,2.8,6.3,6.3,6.3h35.4c3.5,0,6.3-2.8,6.3-6.3V22.9C99.4,15.6,94,9.5,86.9,8.5z M68.1,4.2h14.6v4.2H68.1V4.2z M48.9,44.6
	l5.9,5.9L43,62.4L37,56.4L48.9,44.6z M13.3,80.1l3-3l3,3l2.9-2.9l-3-3l3-3l3,3l2.9-2.9l-3-3l3-3l3,3l2.9-2.9l-3-3l3-3l5.9,5.9
	L19.3,86.1L13.3,80.1z M93.1,95.8H57.7c-1.2,0-2.1-0.9-2.1-2.1V55.6l3.6-3.6c0.8-0.8,0.8-2.1,0-2.9l-3-3l13.4-13.4l-2.9-2.9l-11,11
	V22.9c0-5.8,4.7-10.4,10.4-10.4h18.8c5,0,9.2,3.6,10.2,8.3H59.8V25h35.4v10.4H76.5c-1.2,0-2.1,0.9-2.1,2.1v45.8
	c0,1.2,0.9,2.1,2.1,2.1h18.8v8.3C95.2,94.9,94.3,95.8,93.1,95.8z M95.2,39.6v41.7H78.6V39.6H95.2z"/>
</svg>
