<?xml version="1.0" encoding="utf-8"?>
<!-- Generator: Adobe Illustrator 22.0.1, SVG Export Plug-In . SVG Version: 6.00 Build 0)  -->
<svg version="1.1" id="Layer_1" xmlns="http://www.w3.org/2000/svg" xmlns:xlink="http://www.w3.org/1999/xlink" x="0px" y="0px"
	 viewBox="0 0 99.7 99.7" style="enable-background:new 0 0 99.7 99.7;" xml:space="preserve">
<style type="text/css">
	.st0{fill:#FFFFFF;}
</style>
<g>
	<path class="st0" d="M74.8,99.7H6.2c-3.4,0-6.2-2.8-6.2-6.2V56.1c0-3.4,2.8-6.2,6.2-6.2h68.5c3.4,0,6.2,2.8,6.2,6.2h-4.2
		c0-1.1-0.9-2.1-2.1-2.1H6.2c-1.1,0-2.1,0.9-2.1,2.1v37.4c0,1.1,0.9,2.1,2.1,2.1h68.5c1.1,0,2.1-0.9,2.1-2.1H81
		C81,96.9,78.2,99.7,74.8,99.7z"/>
	<path class="st0" d="M93.5,99.7H83.1c-3.4,0-6.2-2.8-6.2-6.2H81c0,1.1,0.9,2.1,2.1,2.1h10.4c1.1,0,2.1-0.9,2.1-2.1V56.1
		c0-1.1-0.9-2.1-2.1-2.1H83.1c-1.1,0-2.1,0.9-2.1,2.1h-4.2c0-3.4,2.8-6.2,6.2-6.2h10.4c3.4,0,6.2,2.8,6.2,6.2v37.4
		C99.7,96.9,96.9,99.7,93.5,99.7z"/>
	<rect x="76.8" y="60.2" class="st0" width="4.2" height="4.2"/>
	<rect x="76.8" y="68.5" class="st0" width="4.2" height="4.2"/>
	<rect x="76.8" y="76.8" class="st0" width="4.2" height="4.2"/>
	<rect x="76.8" y="85.1" class="st0" width="4.2" height="4.2"/>
	<path class="st0" d="M39.5,91.4h-6.2c-1.1,0-2.1-0.9-2.1-2.1V78.9H14.5c-1.1,0-2.1-0.9-2.1-2.1V60.2c0-1.1,0.9-2.1,2.1-2.1h4.6
		c0.7,0,1.3,0.3,1.7,0.8l4,5.4h36.8c0.5,0,1,0.2,1.4,0.5l6.9,6.2c0.4,0.4,0.7,1,0.7,1.5v4.2c0,1.1-0.9,2.1-2.1,2.1H50.8l-9.8,11.7
		C40.7,91.1,40.1,91.4,39.5,91.4z M35.3,87.2h3.2l9.8-11.7c0.4-0.5,1-0.7,1.6-0.7h16.6v-1.2l-5.7-5.1h-37c-0.7,0-1.3-0.3-1.7-0.8
		l-4-5.4h-1.5v12.5h16.6c1.1,0,2.1,0.9,2.1,2.1V87.2z"/>
	<path class="st0" d="M19.3,53.6L0.6,34.9c-0.8-0.8-0.8-2.1,0-2.9L32,0.6c0.8-0.8,2.1-0.8,2.9,0l49.6,49.6l-2.9,2.9L33.4,5L5,33.4
		l17.2,17.2L19.3,53.6z"/>
	<rect x="12.2" y="32.2" transform="matrix(0.7071 -0.7071 0.7071 0.7071 -14.1944 34.2678)" class="st0" width="44" height="4.2"/>
	<rect x="53" y="29" transform="matrix(0.7071 -0.7071 0.7071 0.7071 -9.5767 49.5606)" class="st0" width="4.2" height="14.7"/>
	
		<rect x="45.7" y="35.7" transform="matrix(0.7071 -0.7071 0.7071 0.7071 -15.3745 45.9399)" class="st0" width="4.2" height="11.7"/>
</g>
</svg>
