<?xml version="1.0" encoding="utf-8"?>
<!-- Generator: Adobe Illustrator 17.0.0, SVG Export Plug-In . SVG Version: 6.00 Build 0)  -->
<!DOCTYPE svg PUBLIC "-//W3C//DTD SVG 1.1//EN" "http://www.w3.org/Graphics/SVG/1.1/DTD/svg11.dtd">
<svg version="1.1" id="Слой_1" xmlns="http://www.w3.org/2000/svg" xmlns:xlink="http://www.w3.org/1999/xlink" x="0px" y="0px"
	 width="142.938px" height="99.97px" viewBox="0 0 142.938 99.97" enable-background="new 0 0 142.938 99.97" xml:space="preserve">
<g>
	<path fill="none" stroke="#FFFFFF" stroke-width="4" stroke-linecap="round" stroke-linejoin="round" stroke-miterlimit="10" d="
		M10.102,9.129c-3.024,0-3.564,2.484-3.564,3.996s0,33.483,0,34.887s3.996,2.484,5.508,3.564c1.512,1.08,2.376,3.132,1.08,5.941
		S3.19,78.471,2.65,79.443c-0.54,0.972-1.404,2.916,0.648,4.428c2.052,1.512,10.585,6.157,12.205,6.805
		c1.62,0.648,3.24,0,4.32-1.728c1.08-1.728,9.721-18.794,9.721-18.794s8.533-16.733,10.045-16.733
		c1.512,0,18.146,0.315,18.146,0.315s8.857,0,10.477,0c1.62,0,21.17-8.317,21.17-8.317s0-31.323,0-32.835s-1.296-3.456-3.456-3.456
		C83.765,9.129,10.102,9.129,10.102,9.129z"/>
	<path fill="none" stroke="#FFFFFF" stroke-width="4" stroke-linecap="round" stroke-linejoin="round" stroke-miterlimit="10" d="
		M30.724,67.877c5.624,0,16.842,0,18.138,0c1.296,0,6.611-14.183,6.611-14.183"/>
	
		<line fill="none" stroke="#FFFFFF" stroke-width="4" stroke-linecap="round" stroke-linejoin="round" stroke-miterlimit="10" x1="38.133" y1="54.919" x2="43.639" y2="60.217"/>
	
		<line fill="none" stroke="#FFFFFF" stroke-width="4" stroke-linecap="round" stroke-linejoin="round" stroke-miterlimit="10" x1="21.479" y1="26.122" x2="70.155" y2="26.122"/>
	
		<line fill="none" stroke="#FFFFFF" stroke-width="4" stroke-linecap="round" stroke-linejoin="round" stroke-miterlimit="10" x1="21.479" y1="37.211" x2="59.643" y2="37.211"/>
	
		<line fill="none" stroke="#FFFFFF" stroke-width="4" stroke-linecap="round" stroke-linejoin="round" stroke-miterlimit="10" x1="16.295" y1="2" x2="28.968" y2="2"/>
	<path fill="none" stroke="#FFFFFF" stroke-width="4" stroke-linecap="round" stroke-linejoin="round" stroke-miterlimit="10" d="
		M96.726,9.129c0,0,30.963,0,33.555,0s4.896,1.152,4.896,3.312s0,5.184,0,5.184h5.76v11.377h-5.616c0,0-0.144,3.456-0.144,4.752
		c0,1.296-0.576,3.456-3.6,3.456c-1.825,0-14.139,0-23.618,0c-6.229,0-11.233,0-11.233,0V9.129z"/>
	<path fill="none" stroke="#FFFFFF" stroke-width="4" stroke-linecap="round" stroke-linejoin="round" stroke-miterlimit="10" d="
		M107.959,56.653c0,4.032,3.456,5.112,5.112,5.112c1.656,0,5.977,0,8.425,0s5.184-1.944,5.184-5.112s0-19.442,0-19.442h-18.722
		L107.959,56.653z"/>
	
		<line fill="none" stroke="#FFFFFF" stroke-width="4" stroke-linecap="round" stroke-linejoin="round" stroke-miterlimit="10" x1="127.688" y1="9.129" x2="127.688" y2="3.8"/>
	<path fill="none" stroke="#FFFFFF" stroke-width="4" stroke-linecap="round" stroke-linejoin="round" stroke-miterlimit="10" d="
		M71.29,60.785c6.481-1.972,20.576-8.453,20.576-8.453s4.932,19.586,15.157,30.387c2.982,3.324,1.296,5.173-1.296,8.203
		c-2.592,3.03-4.464,4.47-6.625,6.054c-2.16,1.584-5.04,1.584-8.497-2.304C87.149,90.784,72.154,69.814,71.29,60.785z"/>
</g>
</svg>
